<svg width="689" height="552" viewBox="0 0 689 552" fill="none" xmlns="http://www.w3.org/2000/svg">
<g clip-path="url(#clip0_0_1254)">
<path d="M0.471272 39.5H688.529" stroke="black"/>
<path d="M26.772 12V4.836H24.324V3.6H30.768V4.836H28.308V12H26.772ZM33.9058 12V3.6H35.4418V7.092H39.2098V3.6H40.7458V12H39.2098V8.34H35.4418V12H33.9058ZM44.3785 12V3.6H49.8625V4.836H45.9145V7.14H49.5025V8.34H45.9145V10.764H49.8625V12H44.3785ZM58.1754 12V3.6H63.5994V4.836H59.7114V7.188H62.8554V8.4H59.7114V12H58.1754ZM66.7848 12V3.6H72.2688V4.836H68.3208V7.14H71.9088V8.34H68.3208V10.764H72.2688V12H66.7848ZM75.1823 12L78.2543 3.6H79.9823L83.0543 12H81.4223L80.7503 10.056H77.4743L76.7903 12H75.1823ZM77.8943 8.856H80.3303L79.1063 5.364L77.8943 8.856ZM87.2017 12V4.836H84.7537V3.6H91.1977V4.836H88.7377V12H87.2017ZM97.5755 12.144C96.9595 12.144 96.4035 12.024 95.9075 11.784C95.4115 11.536 95.0155 11.164 94.7195 10.668C94.4315 10.172 94.2875 9.544 94.2875 8.784V3.6H95.8235V8.796C95.8235 9.452 95.9795 9.94 96.2915 10.26C96.6115 10.58 97.0515 10.74 97.6115 10.74C98.1635 10.74 98.5995 10.58 98.9195 10.26C99.2395 9.94 99.3995 9.452 99.3995 8.796V3.6H100.936V8.784C100.936 9.544 100.784 10.172 100.48 10.668C100.176 11.164 99.7675 11.536 99.2555 11.784C98.7515 12.024 98.1915 12.144 97.5755 12.144ZM104.504 12V3.6H107.588C108.26 3.6 108.812 3.716 109.244 3.948C109.684 4.172 110.012 4.48 110.228 4.872C110.444 5.256 110.552 5.684 110.552 6.156C110.552 6.668 110.416 7.136 110.144 7.56C109.88 7.984 109.464 8.292 108.896 8.484L110.636 12H108.872L107.312 8.688H106.04V12H104.504ZM106.04 7.56H107.492C108.004 7.56 108.38 7.436 108.62 7.188C108.86 6.94 108.98 6.612 108.98 6.204C108.98 5.804 108.86 5.484 108.62 5.244C108.388 5.004 108.008 4.884 107.48 4.884H106.04V7.56ZM113.98 12V3.6H119.464V4.836H115.516V7.14H119.104V8.34H115.516V10.764H119.464V12H113.98ZM125.786 12.144C125.17 12.144 124.626 12.04 124.154 11.832C123.682 11.616 123.31 11.312 123.038 10.92C122.766 10.52 122.626 10.036 122.618 9.468H124.238C124.254 9.86 124.394 10.192 124.658 10.464C124.93 10.728 125.302 10.86 125.774 10.86C126.182 10.86 126.506 10.764 126.746 10.572C126.986 10.372 127.106 10.108 127.106 9.78C127.106 9.436 126.998 9.168 126.782 8.976C126.574 8.784 126.294 8.628 125.942 8.508C125.59 8.388 125.214 8.26 124.814 8.124C124.166 7.9 123.67 7.612 123.326 7.26C122.99 6.908 122.822 6.44 122.822 5.856C122.814 5.36 122.93 4.936 123.17 4.584C123.418 4.224 123.754 3.948 124.178 3.756C124.602 3.556 125.09 3.456 125.642 3.456C126.202 3.456 126.694 3.556 127.118 3.756C127.55 3.956 127.886 4.236 128.126 4.596C128.374 4.956 128.506 5.384 128.522 5.88H126.878C126.87 5.584 126.754 5.324 126.53 5.1C126.314 4.868 126.01 4.752 125.618 4.752C125.282 4.744 124.998 4.828 124.766 5.004C124.542 5.172 124.43 5.42 124.43 5.748C124.43 6.028 124.518 6.252 124.694 6.42C124.87 6.58 125.11 6.716 125.414 6.828C125.718 6.94 126.066 7.06 126.458 7.188C126.874 7.332 127.254 7.5 127.598 7.692C127.942 7.884 128.218 8.14 128.426 8.46C128.634 8.772 128.738 9.176 128.738 9.672C128.738 10.112 128.626 10.52 128.402 10.896C128.178 11.272 127.846 11.576 127.406 11.808C126.966 12.032 126.426 12.144 125.786 12.144Z" fill="black"/>
<path d="M318.273 12V3.6H321.645C322.517 3.6 323.181 3.804 323.637 4.212C324.101 4.612 324.333 5.128 324.333 5.76C324.333 6.288 324.189 6.712 323.901 7.032C323.621 7.344 323.277 7.556 322.869 7.668C323.349 7.764 323.745 8.004 324.057 8.388C324.369 8.764 324.525 9.204 324.525 9.708C324.525 10.372 324.285 10.92 323.805 11.352C323.325 11.784 322.645 12 321.765 12H318.273ZM319.809 7.128H321.417C321.849 7.128 322.181 7.028 322.413 6.828C322.645 6.628 322.761 6.344 322.761 5.976C322.761 5.624 322.645 5.348 322.413 5.148C322.189 4.94 321.849 4.836 321.393 4.836H319.809V7.128ZM319.809 10.752H321.525C321.981 10.752 322.333 10.648 322.581 10.44C322.837 10.224 322.965 9.924 322.965 9.54C322.965 9.148 322.833 8.84 322.569 8.616C322.305 8.392 321.949 8.28 321.501 8.28H319.809V10.752ZM327.233 12L330.305 3.6H332.033L335.105 12H333.473L332.801 10.056H329.525L328.841 12H327.233ZM329.945 8.856H332.381L331.157 5.364L329.945 8.856ZM341.055 12.144C340.439 12.144 339.895 12.04 339.423 11.832C338.951 11.616 338.579 11.312 338.307 10.92C338.035 10.52 337.895 10.036 337.887 9.468H339.507C339.523 9.86 339.663 10.192 339.927 10.464C340.199 10.728 340.571 10.86 341.043 10.86C341.451 10.86 341.775 10.764 342.015 10.572C342.255 10.372 342.375 10.108 342.375 9.78C342.375 9.436 342.267 9.168 342.051 8.976C341.843 8.784 341.563 8.628 341.211 8.508C340.859 8.388 340.483 8.26 340.083 8.124C339.435 7.9 338.939 7.612 338.595 7.26C338.259 6.908 338.091 6.44 338.091 5.856C338.083 5.36 338.199 4.936 338.439 4.584C338.687 4.224 339.023 3.948 339.447 3.756C339.871 3.556 340.359 3.456 340.911 3.456C341.471 3.456 341.963 3.556 342.387 3.756C342.819 3.956 343.155 4.236 343.395 4.596C343.643 4.956 343.775 5.384 343.791 5.88H342.147C342.139 5.584 342.023 5.324 341.799 5.1C341.583 4.868 341.279 4.752 340.887 4.752C340.551 4.744 340.267 4.828 340.035 5.004C339.811 5.172 339.699 5.42 339.699 5.748C339.699 6.028 339.787 6.252 339.963 6.42C340.139 6.58 340.379 6.716 340.683 6.828C340.987 6.94 341.335 7.06 341.727 7.188C342.143 7.332 342.523 7.5 342.867 7.692C343.211 7.884 343.487 8.14 343.695 8.46C343.903 8.772 344.007 9.176 344.007 9.672C344.007 10.112 343.895 10.52 343.671 10.896C343.447 11.272 343.115 11.576 342.675 11.808C342.235 12.032 341.695 12.144 341.055 12.144ZM347.347 12V3.6H348.883V12H347.347ZM356.315 12.144C355.467 12.144 354.739 11.964 354.131 11.604C353.523 11.236 353.055 10.728 352.727 10.08C352.399 9.424 352.235 8.668 352.235 7.812C352.235 6.956 352.399 6.2 352.727 5.544C353.055 4.888 353.523 4.376 354.131 4.008C354.739 3.64 355.467 3.456 356.315 3.456C357.323 3.456 358.147 3.708 358.787 4.212C359.435 4.708 359.839 5.408 359.999 6.312H358.307C358.203 5.856 357.979 5.5 357.635 5.244C357.299 4.98 356.851 4.848 356.291 4.848C355.515 4.848 354.907 5.112 354.467 5.64C354.027 6.168 353.807 6.892 353.807 7.812C353.807 8.732 354.027 9.456 354.467 9.984C354.907 10.504 355.515 10.764 356.291 10.764C356.851 10.764 357.299 10.644 357.635 10.404C357.979 10.156 358.203 9.816 358.307 9.384H359.999C359.839 10.248 359.435 10.924 358.787 11.412C358.147 11.9 357.323 12.144 356.315 12.144Z" fill="black"/>
<path d="M465.687 12V3.6H468.795C469.467 3.6 470.023 3.712 470.463 3.936C470.903 4.16 471.231 4.468 471.447 4.86C471.663 5.252 471.771 5.692 471.771 6.18C471.771 6.644 471.667 7.072 471.459 7.464C471.251 7.848 470.927 8.16 470.487 8.4C470.047 8.632 469.483 8.748 468.795 8.748H467.223V12H465.687ZM467.223 7.5H468.699C469.235 7.5 469.619 7.384 469.851 7.152C470.091 6.912 470.211 6.588 470.211 6.18C470.211 5.764 470.091 5.44 469.851 5.208C469.619 4.968 469.235 4.848 468.699 4.848H467.223V7.5ZM474.976 12V3.6H478.06C478.732 3.6 479.284 3.716 479.716 3.948C480.156 4.172 480.484 4.48 480.7 4.872C480.916 5.256 481.024 5.684 481.024 6.156C481.024 6.668 480.888 7.136 480.616 7.56C480.352 7.984 479.936 8.292 479.368 8.484L481.108 12H479.344L477.784 8.688H476.512V12H474.976ZM476.512 7.56H477.964C478.476 7.56 478.852 7.436 479.092 7.188C479.332 6.94 479.452 6.612 479.452 6.204C479.452 5.804 479.332 5.484 479.092 5.244C478.86 5.004 478.48 4.884 477.952 4.884H476.512V7.56ZM488.389 12.144C487.549 12.144 486.813 11.96 486.181 11.592C485.557 11.224 485.065 10.716 484.705 10.068C484.353 9.412 484.177 8.656 484.177 7.8C484.177 6.944 484.353 6.192 484.705 5.544C485.065 4.888 485.557 4.376 486.181 4.008C486.813 3.64 487.549 3.456 488.389 3.456C489.221 3.456 489.953 3.64 490.585 4.008C491.217 4.376 491.709 4.888 492.061 5.544C492.413 6.192 492.589 6.944 492.589 7.8C492.589 8.656 492.413 9.412 492.061 10.068C491.709 10.716 491.217 11.224 490.585 11.592C489.953 11.96 489.221 12.144 488.389 12.144ZM488.389 10.764C489.189 10.764 489.825 10.5 490.297 9.972C490.777 9.444 491.017 8.72 491.017 7.8C491.017 6.88 490.777 6.156 490.297 5.628C489.825 5.1 489.189 4.836 488.389 4.836C487.589 4.836 486.949 5.1 486.469 5.628C485.989 6.156 485.749 6.88 485.749 7.8C485.749 8.72 485.989 9.444 486.469 9.972C486.949 10.5 487.589 10.764 488.389 10.764Z" fill="black"/>
<path d="M584.832 12V3.6H588.204C589.076 3.6 589.74 3.804 590.196 4.212C590.66 4.612 590.892 5.128 590.892 5.76C590.892 6.288 590.748 6.712 590.46 7.032C590.18 7.344 589.836 7.556 589.428 7.668C589.908 7.764 590.304 8.004 590.616 8.388C590.928 8.764 591.084 9.204 591.084 9.708C591.084 10.372 590.844 10.92 590.364 11.352C589.884 11.784 589.204 12 588.324 12H584.832ZM586.368 7.128H587.976C588.408 7.128 588.74 7.028 588.972 6.828C589.204 6.628 589.32 6.344 589.32 5.976C589.32 5.624 589.204 5.348 588.972 5.148C588.748 4.94 588.408 4.836 587.952 4.836H586.368V7.128ZM586.368 10.752H588.084C588.54 10.752 588.892 10.648 589.14 10.44C589.396 10.224 589.524 9.924 589.524 9.54C589.524 9.148 589.392 8.84 589.128 8.616C588.864 8.392 588.508 8.28 588.06 8.28H586.368V10.752ZM597.642 12.144C597.026 12.144 596.47 12.024 595.974 11.784C595.478 11.536 595.082 11.164 594.786 10.668C594.498 10.172 594.354 9.544 594.354 8.784V3.6H595.89V8.796C595.89 9.452 596.046 9.94 596.358 10.26C596.678 10.58 597.118 10.74 597.678 10.74C598.23 10.74 598.666 10.58 598.986 10.26C599.306 9.94 599.466 9.452 599.466 8.796V3.6H601.002V8.784C601.002 9.544 600.85 10.172 600.546 10.668C600.242 11.164 599.834 11.536 599.322 11.784C598.818 12.024 598.258 12.144 597.642 12.144ZM607.438 12.144C606.822 12.144 606.278 12.04 605.806 11.832C605.334 11.616 604.962 11.312 604.69 10.92C604.418 10.52 604.278 10.036 604.27 9.468H605.89C605.906 9.86 606.046 10.192 606.31 10.464C606.582 10.728 606.954 10.86 607.426 10.86C607.834 10.86 608.158 10.764 608.398 10.572C608.638 10.372 608.758 10.108 608.758 9.78C608.758 9.436 608.65 9.168 608.434 8.976C608.226 8.784 607.946 8.628 607.594 8.508C607.242 8.388 606.866 8.26 606.466 8.124C605.818 7.9 605.322 7.612 604.978 7.26C604.642 6.908 604.474 6.44 604.474 5.856C604.466 5.36 604.582 4.936 604.822 4.584C605.07 4.224 605.406 3.948 605.83 3.756C606.254 3.556 606.742 3.456 607.294 3.456C607.854 3.456 608.346 3.556 608.77 3.756C609.202 3.956 609.538 4.236 609.778 4.596C610.026 4.956 610.158 5.384 610.174 5.88H608.53C608.522 5.584 608.406 5.324 608.182 5.1C607.966 4.868 607.662 4.752 607.27 4.752C606.934 4.744 606.65 4.828 606.418 5.004C606.194 5.172 606.082 5.42 606.082 5.748C606.082 6.028 606.17 6.252 606.346 6.42C606.522 6.58 606.762 6.716 607.066 6.828C607.37 6.94 607.718 7.06 608.11 7.188C608.526 7.332 608.906 7.5 609.25 7.692C609.594 7.884 609.87 8.14 610.078 8.46C610.286 8.772 610.39 9.176 610.39 9.672C610.39 10.112 610.278 10.52 610.054 10.896C609.83 11.272 609.498 11.576 609.058 11.808C608.618 12.032 608.078 12.144 607.438 12.144ZM613.73 12V3.6H615.266V12H613.73ZM618.894 12V3.6H620.43L624.378 9.516V3.6H625.914V12H624.378L620.43 6.096V12H618.894ZM629.543 12V3.6H635.027V4.836H631.079V7.14H634.667V8.34H631.079V10.764H635.027V12H629.543ZM641.348 12.144C640.732 12.144 640.188 12.04 639.716 11.832C639.244 11.616 638.872 11.312 638.6 10.92C638.328 10.52 638.188 10.036 638.18 9.468H639.8C639.816 9.86 639.956 10.192 640.22 10.464C640.492 10.728 640.864 10.86 641.336 10.86C641.744 10.86 642.068 10.764 642.308 10.572C642.548 10.372 642.668 10.108 642.668 9.78C642.668 9.436 642.56 9.168 642.344 8.976C642.136 8.784 641.856 8.628 641.504 8.508C641.152 8.388 640.776 8.26 640.376 8.124C639.728 7.9 639.232 7.612 638.888 7.26C638.552 6.908 638.384 6.44 638.384 5.856C638.376 5.36 638.492 4.936 638.732 4.584C638.98 4.224 639.316 3.948 639.74 3.756C640.164 3.556 640.652 3.456 641.204 3.456C641.764 3.456 642.256 3.556 642.68 3.756C643.112 3.956 643.448 4.236 643.688 4.596C643.936 4.956 644.068 5.384 644.084 5.88H642.44C642.432 5.584 642.316 5.324 642.092 5.1C641.876 4.868 641.572 4.752 641.18 4.752C640.844 4.744 640.56 4.828 640.328 5.004C640.104 5.172 639.992 5.42 639.992 5.748C639.992 6.028 640.08 6.252 640.256 6.42C640.432 6.58 640.672 6.716 640.976 6.828C641.28 6.94 641.628 7.06 642.02 7.188C642.436 7.332 642.816 7.5 643.16 7.692C643.504 7.884 643.78 8.14 643.988 8.46C644.196 8.772 644.3 9.176 644.3 9.672C644.3 10.112 644.188 10.52 643.964 10.896C643.74 11.272 643.408 11.576 642.968 11.808C642.528 12.032 641.988 12.144 641.348 12.144ZM650.508 12.144C649.892 12.144 649.348 12.04 648.876 11.832C648.404 11.616 648.032 11.312 647.76 10.92C647.488 10.52 647.348 10.036 647.34 9.468H648.96C648.976 9.86 649.116 10.192 649.38 10.464C649.652 10.728 650.024 10.86 650.496 10.86C650.904 10.86 651.228 10.764 651.468 10.572C651.708 10.372 651.828 10.108 651.828 9.78C651.828 9.436 651.72 9.168 651.504 8.976C651.296 8.784 651.016 8.628 650.664 8.508C650.312 8.388 649.936 8.26 649.536 8.124C648.888 7.9 648.392 7.612 648.048 7.26C647.712 6.908 647.544 6.44 647.544 5.856C647.536 5.36 647.652 4.936 647.892 4.584C648.14 4.224 648.476 3.948 648.9 3.756C649.324 3.556 649.812 3.456 650.364 3.456C650.924 3.456 651.416 3.556 651.84 3.756C652.272 3.956 652.608 4.236 652.848 4.596C653.096 4.956 653.228 5.384 653.244 5.88H651.6C651.592 5.584 651.476 5.324 651.252 5.1C651.036 4.868 650.732 4.752 650.34 4.752C650.004 4.744 649.72 4.828 649.488 5.004C649.264 5.172 649.152 5.42 649.152 5.748C649.152 6.028 649.24 6.252 649.416 6.42C649.592 6.58 649.832 6.716 650.136 6.828C650.44 6.94 650.788 7.06 651.18 7.188C651.596 7.332 651.976 7.5 652.32 7.692C652.664 7.884 652.94 8.14 653.148 8.46C653.356 8.772 653.46 9.176 653.46 9.672C653.46 10.112 653.348 10.52 653.124 10.896C652.9 11.272 652.568 11.576 652.128 11.808C651.688 12.032 651.148 12.144 650.508 12.144Z" fill="black"/>
<g clip-path="url(#clip1_0_1254)">
<path d="M28.056 75.144C27.44 75.144 26.884 75.024 26.388 74.784C25.892 74.536 25.496 74.164 25.2 73.668C24.912 73.172 24.768 72.544 24.768 71.784V66.6H26.304V71.796C26.304 72.452 26.46 72.94 26.772 73.26C27.092 73.58 27.532 73.74 28.092 73.74C28.644 73.74 29.08 73.58 29.4 73.26C29.72 72.94 29.88 72.452 29.88 71.796V66.6H31.416V71.784C31.416 72.544 31.264 73.172 30.96 73.668C30.656 74.164 30.248 74.536 29.736 74.784C29.232 75.024 28.672 75.144 28.056 75.144ZM34.984 75V66.6H36.52L40.468 72.516V66.6H42.004V75H40.468L36.52 69.096V75H34.984ZM45.6324 75V66.6H47.1684V73.8H50.8884V75H45.6324ZM54.2418 75V66.6H55.7778V75H54.2418ZM59.4058 75V66.6H61.2298L63.9058 71.928L66.5458 66.6H68.3698V75H66.8338V69.204L64.4938 73.8H63.2818L60.9418 69.204V75H59.4058ZM71.9996 75V66.6H73.5356V75H71.9996ZM79.1197 75V67.836H76.6717V66.6H83.1157V67.836H80.6557V75H79.1197ZM86.2535 75V66.6H91.7375V67.836H87.7895V70.14H91.3775V71.34H87.7895V73.764H91.7375V75H86.2535ZM95.191 75V66.6H98.059C99.043 66.6 99.851 66.776 100.483 67.128C101.123 67.472 101.595 67.96 101.899 68.592C102.211 69.216 102.367 69.952 102.367 70.8C102.367 71.648 102.211 72.388 101.899 73.02C101.595 73.644 101.123 74.132 100.483 74.484C99.851 74.828 99.043 75 98.059 75H95.191ZM96.727 73.68H97.987C98.691 73.68 99.247 73.568 99.655 73.344C100.063 73.112 100.355 72.784 100.531 72.36C100.707 71.928 100.795 71.408 100.795 70.8C100.795 70.2 100.707 69.684 100.531 69.252C100.355 68.82 100.063 68.488 99.655 68.256C99.247 68.024 98.691 67.908 97.987 67.908H96.727V73.68ZM113.45 75.144C112.834 75.144 112.29 75.04 111.818 74.832C111.346 74.616 110.974 74.312 110.702 73.92C110.43 73.52 110.29 73.036 110.282 72.468H111.902C111.918 72.86 112.058 73.192 112.322 73.464C112.594 73.728 112.966 73.86 113.438 73.86C113.846 73.86 114.17 73.764 114.41 73.572C114.65 73.372 114.77 73.108 114.77 72.78C114.77 72.436 114.662 72.168 114.446 71.976C114.238 71.784 113.958 71.628 113.606 71.508C113.254 71.388 112.878 71.26 112.478 71.124C111.83 70.9 111.334 70.612 110.99 70.26C110.654 69.908 110.486 69.44 110.486 68.856C110.478 68.36 110.594 67.936 110.834 67.584C111.082 67.224 111.418 66.948 111.842 66.756C112.266 66.556 112.754 66.456 113.306 66.456C113.866 66.456 114.358 66.556 114.782 66.756C115.214 66.956 115.55 67.236 115.79 67.596C116.038 67.956 116.17 68.384 116.186 68.88H114.542C114.534 68.584 114.418 68.324 114.194 68.1C113.978 67.868 113.674 67.752 113.282 67.752C112.946 67.744 112.662 67.828 112.43 68.004C112.206 68.172 112.094 68.42 112.094 68.748C112.094 69.028 112.182 69.252 112.358 69.42C112.534 69.58 112.774 69.716 113.078 69.828C113.382 69.94 113.73 70.06 114.122 70.188C114.538 70.332 114.918 70.5 115.262 70.692C115.606 70.884 115.882 71.14 116.09 71.46C116.298 71.772 116.402 72.176 116.402 72.672C116.402 73.112 116.29 73.52 116.066 73.896C115.842 74.272 115.51 74.576 115.07 74.808C114.63 75.032 114.09 75.144 113.45 75.144ZM121.592 75V67.836H119.144V66.6H125.588V67.836H123.128V75H121.592ZM132.357 75.144C131.517 75.144 130.781 74.96 130.149 74.592C129.525 74.224 129.033 73.716 128.673 73.068C128.321 72.412 128.145 71.656 128.145 70.8C128.145 69.944 128.321 69.192 128.673 68.544C129.033 67.888 129.525 67.376 130.149 67.008C130.781 66.64 131.517 66.456 132.357 66.456C133.189 66.456 133.921 66.64 134.553 67.008C135.185 67.376 135.677 67.888 136.029 68.544C136.381 69.192 136.557 69.944 136.557 70.8C136.557 71.656 136.381 72.412 136.029 73.068C135.677 73.716 135.185 74.224 134.553 74.592C133.921 74.96 133.189 75.144 132.357 75.144ZM132.357 73.764C133.157 73.764 133.793 73.5 134.265 72.972C134.745 72.444 134.985 71.72 134.985 70.8C134.985 69.88 134.745 69.156 134.265 68.628C133.793 68.1 133.157 67.836 132.357 67.836C131.557 67.836 130.917 68.1 130.437 68.628C129.957 69.156 129.717 69.88 129.717 70.8C129.717 71.72 129.957 72.444 130.437 72.972C130.917 73.5 131.557 73.764 132.357 73.764ZM139.914 75V66.6H142.998C143.67 66.6 144.222 66.716 144.654 66.948C145.094 67.172 145.422 67.48 145.638 67.872C145.854 68.256 145.962 68.684 145.962 69.156C145.962 69.668 145.826 70.136 145.554 70.56C145.29 70.984 144.874 71.292 144.306 71.484L146.046 75H144.282L142.722 71.688H141.45V75H139.914ZM141.45 70.56H142.902C143.414 70.56 143.79 70.436 144.03 70.188C144.27 69.94 144.39 69.612 144.39 69.204C144.39 68.804 144.27 68.484 144.03 68.244C143.798 68.004 143.418 67.884 142.89 67.884H141.45V70.56ZM151.269 75V72.012L148.449 66.6H150.189L152.049 70.476L153.897 66.6H155.613L152.805 72.012V75H151.269ZM163.457 75V66.6H166.565C167.237 66.6 167.793 66.712 168.233 66.936C168.673 67.16 169.001 67.468 169.217 67.86C169.433 68.252 169.541 68.692 169.541 69.18C169.541 69.644 169.437 70.072 169.229 70.464C169.021 70.848 168.697 71.16 168.257 71.4C167.817 71.632 167.253 71.748 166.565 71.748H164.993V75H163.457ZM164.993 70.5H166.469C167.005 70.5 167.389 70.384 167.621 70.152C167.861 69.912 167.981 69.588 167.981 69.18C167.981 68.764 167.861 68.44 167.621 68.208C167.389 67.968 167.005 67.848 166.469 67.848H164.993V70.5ZM176.682 75.144C175.842 75.144 175.106 74.96 174.474 74.592C173.85 74.224 173.358 73.716 172.998 73.068C172.646 72.412 172.47 71.656 172.47 70.8C172.47 69.944 172.646 69.192 172.998 68.544C173.358 67.888 173.85 67.376 174.474 67.008C175.106 66.64 175.842 66.456 176.682 66.456C177.514 66.456 178.246 66.64 178.878 67.008C179.51 67.376 180.002 67.888 180.354 68.544C180.706 69.192 180.882 69.944 180.882 70.8C180.882 71.656 180.706 72.412 180.354 73.068C180.002 73.716 179.51 74.224 178.878 74.592C178.246 74.96 177.514 75.144 176.682 75.144ZM176.682 73.764C177.482 73.764 178.118 73.5 178.59 72.972C179.07 72.444 179.31 71.72 179.31 70.8C179.31 69.88 179.07 69.156 178.59 68.628C178.118 68.1 177.482 67.836 176.682 67.836C175.882 67.836 175.242 68.1 174.762 68.628C174.282 69.156 174.042 69.88 174.042 70.8C174.042 71.72 174.282 72.444 174.762 72.972C175.242 73.5 175.882 73.764 176.682 73.764ZM187.106 75.144C186.49 75.144 185.946 75.04 185.474 74.832C185.002 74.616 184.63 74.312 184.358 73.92C184.086 73.52 183.946 73.036 183.938 72.468H185.558C185.574 72.86 185.714 73.192 185.978 73.464C186.25 73.728 186.622 73.86 187.094 73.86C187.502 73.86 187.826 73.764 188.066 73.572C188.306 73.372 188.426 73.108 188.426 72.78C188.426 72.436 188.318 72.168 188.102 71.976C187.894 71.784 187.614 71.628 187.262 71.508C186.91 71.388 186.534 71.26 186.134 71.124C185.486 70.9 184.99 70.612 184.646 70.26C184.31 69.908 184.142 69.44 184.142 68.856C184.134 68.36 184.25 67.936 184.49 67.584C184.738 67.224 185.074 66.948 185.498 66.756C185.922 66.556 186.41 66.456 186.962 66.456C187.522 66.456 188.014 66.556 188.438 66.756C188.87 66.956 189.206 67.236 189.446 67.596C189.694 67.956 189.826 68.384 189.842 68.88H188.198C188.19 68.584 188.074 68.324 187.85 68.1C187.634 67.868 187.33 67.752 186.938 67.752C186.602 67.744 186.318 67.828 186.086 68.004C185.862 68.172 185.75 68.42 185.75 68.748C185.75 69.028 185.838 69.252 186.014 69.42C186.19 69.58 186.43 69.716 186.734 69.828C187.038 69.94 187.386 70.06 187.778 70.188C188.194 70.332 188.574 70.5 188.918 70.692C189.262 70.884 189.538 71.14 189.746 71.46C189.954 71.772 190.058 72.176 190.058 72.672C190.058 73.112 189.946 73.52 189.722 73.896C189.498 74.272 189.166 74.576 188.726 74.808C188.286 75.032 187.746 75.144 187.106 75.144ZM195.249 75V67.836H192.801V66.6H199.245V67.836H196.785V75H195.249ZM202.382 75V66.6H203.918V75H202.382ZM207.546 75V66.6H209.082L213.03 72.516V66.6H214.566V75H213.03L209.082 69.096V75H207.546ZM221.867 75.144C221.075 75.144 220.383 74.964 219.791 74.604C219.199 74.244 218.739 73.744 218.411 73.104C218.083 72.456 217.919 71.704 217.919 70.848C217.919 69.984 218.087 69.224 218.423 68.568C218.767 67.904 219.251 67.388 219.875 67.02C220.507 66.644 221.255 66.456 222.119 66.456C223.103 66.456 223.919 66.692 224.567 67.164C225.215 67.636 225.635 68.288 225.827 69.12H224.111C223.983 68.728 223.751 68.424 223.415 68.208C223.079 67.984 222.647 67.872 222.119 67.872C221.279 67.872 220.631 68.14 220.175 68.676C219.719 69.204 219.491 69.932 219.491 70.86C219.491 71.788 219.715 72.508 220.163 73.02C220.619 73.524 221.235 73.776 222.011 73.776C222.771 73.776 223.343 73.572 223.727 73.164C224.119 72.748 224.355 72.204 224.435 71.532H222.311V70.38H225.983V75H224.567L224.447 73.896C224.175 74.296 223.835 74.604 223.427 74.82C223.019 75.036 222.499 75.144 221.867 75.144Z" fill="black"/>
<path d="M331 72.1235L335.623 77L347 65" stroke="black" stroke-width="2"/>
<path d="M471 72.1235L475.623 77L487 65" stroke="black" stroke-width="2"/>
<path d="M611 72.1235L615.623 77L627 65" stroke="black" stroke-width="2"/>
</g>
<path d="M0.471272 103H688.529" stroke="#DFDFDF"/>
<g clip-path="url(#clip2_0_1254)">
<path d="M28.056 139.144C27.44 139.144 26.884 139.024 26.388 138.784C25.892 138.536 25.496 138.164 25.2 137.668C24.912 137.172 24.768 136.544 24.768 135.784V130.6H26.304V135.796C26.304 136.452 26.46 136.94 26.772 137.26C27.092 137.58 27.532 137.74 28.092 137.74C28.644 137.74 29.08 137.58 29.4 137.26C29.72 136.94 29.88 136.452 29.88 135.796V130.6H31.416V135.784C31.416 136.544 31.264 137.172 30.96 137.668C30.656 138.164 30.248 138.536 29.736 138.784C29.232 139.024 28.672 139.144 28.056 139.144ZM34.984 139V130.6H36.52L40.468 136.516V130.6H42.004V139H40.468L36.52 133.096V139H34.984ZM45.6324 139V130.6H47.1684V137.8H50.8884V139H45.6324ZM54.2418 139V130.6H55.7778V139H54.2418ZM59.4058 139V130.6H61.2298L63.9058 135.928L66.5458 130.6H68.3698V139H66.8338V133.204L64.4938 137.8H63.2818L60.9418 133.204V139H59.4058ZM71.9996 139V130.6H73.5356V139H71.9996ZM79.1197 139V131.836H76.6717V130.6H83.1157V131.836H80.6557V139H79.1197ZM86.2535 139V130.6H91.7375V131.836H87.7895V134.14H91.3775V135.34H87.7895V137.764H91.7375V139H86.2535ZM95.191 139V130.6H98.059C99.043 130.6 99.851 130.776 100.483 131.128C101.123 131.472 101.595 131.96 101.899 132.592C102.211 133.216 102.367 133.952 102.367 134.8C102.367 135.648 102.211 136.388 101.899 137.02C101.595 137.644 101.123 138.132 100.483 138.484C99.851 138.828 99.043 139 98.059 139H95.191ZM96.727 137.68H97.987C98.691 137.68 99.247 137.568 99.655 137.344C100.063 137.112 100.355 136.784 100.531 136.36C100.707 135.928 100.795 135.408 100.795 134.8C100.795 134.2 100.707 133.684 100.531 133.252C100.355 132.82 100.063 132.488 99.655 132.256C99.247 132.024 98.691 131.908 97.987 131.908H96.727V137.68ZM110.582 139V130.6H113.69C114.362 130.6 114.918 130.712 115.358 130.936C115.798 131.16 116.126 131.468 116.342 131.86C116.558 132.252 116.666 132.692 116.666 133.18C116.666 133.644 116.562 134.072 116.354 134.464C116.146 134.848 115.822 135.16 115.382 135.4C114.942 135.632 114.378 135.748 113.69 135.748H112.118V139H110.582ZM112.118 134.5H113.594C114.13 134.5 114.514 134.384 114.746 134.152C114.986 133.912 115.106 133.588 115.106 133.18C115.106 132.764 114.986 132.44 114.746 132.208C114.514 131.968 114.13 131.848 113.594 131.848H112.118V134.5ZM119.871 139V130.6H121.407V134.092H125.175V130.6H126.711V139H125.175V135.34H121.407V139H119.871ZM134.279 139.144C133.439 139.144 132.703 138.96 132.071 138.592C131.447 138.224 130.955 137.716 130.595 137.068C130.243 136.412 130.067 135.656 130.067 134.8C130.067 133.944 130.243 133.192 130.595 132.544C130.955 131.888 131.447 131.376 132.071 131.008C132.703 130.64 133.439 130.456 134.279 130.456C135.111 130.456 135.843 130.64 136.475 131.008C137.107 131.376 137.599 131.888 137.951 132.544C138.303 133.192 138.479 133.944 138.479 134.8C138.479 135.656 138.303 136.412 137.951 137.068C137.599 137.716 137.107 138.224 136.475 138.592C135.843 138.96 135.111 139.144 134.279 139.144ZM134.279 137.764C135.079 137.764 135.715 137.5 136.187 136.972C136.667 136.444 136.907 135.72 136.907 134.8C136.907 133.88 136.667 133.156 136.187 132.628C135.715 132.1 135.079 131.836 134.279 131.836C133.479 131.836 132.839 132.1 132.359 132.628C131.879 133.156 131.639 133.88 131.639 134.8C131.639 135.72 131.879 136.444 132.359 136.972C132.839 137.5 133.479 137.764 134.279 137.764ZM143.487 139V131.836H141.039V130.6H147.483V131.836H145.023V139H143.487ZM154.252 139.144C153.412 139.144 152.676 138.96 152.044 138.592C151.42 138.224 150.928 137.716 150.568 137.068C150.216 136.412 150.04 135.656 150.04 134.8C150.04 133.944 150.216 133.192 150.568 132.544C150.928 131.888 151.42 131.376 152.044 131.008C152.676 130.64 153.412 130.456 154.252 130.456C155.084 130.456 155.816 130.64 156.448 131.008C157.08 131.376 157.572 131.888 157.924 132.544C158.276 133.192 158.452 133.944 158.452 134.8C158.452 135.656 158.276 136.412 157.924 137.068C157.572 137.716 157.08 138.224 156.448 138.592C155.816 138.96 155.084 139.144 154.252 139.144ZM154.252 137.764C155.052 137.764 155.688 137.5 156.16 136.972C156.64 136.444 156.88 135.72 156.88 134.8C156.88 133.88 156.64 133.156 156.16 132.628C155.688 132.1 155.052 131.836 154.252 131.836C153.452 131.836 152.812 132.1 152.332 132.628C151.852 133.156 151.612 133.88 151.612 134.8C151.612 135.72 151.852 136.444 152.332 136.972C152.812 137.5 153.452 137.764 154.252 137.764ZM169.908 139.144C169.292 139.144 168.736 139.024 168.24 138.784C167.744 138.536 167.348 138.164 167.052 137.668C166.764 137.172 166.62 136.544 166.62 135.784V130.6H168.156V135.796C168.156 136.452 168.312 136.94 168.624 137.26C168.944 137.58 169.384 137.74 169.944 137.74C170.496 137.74 170.932 137.58 171.252 137.26C171.572 136.94 171.732 136.452 171.732 135.796V130.6H173.268V135.784C173.268 136.544 173.116 137.172 172.812 137.668C172.508 138.164 172.1 138.536 171.588 138.784C171.084 139.024 170.524 139.144 169.908 139.144ZM176.836 139V130.6H179.944C180.616 130.6 181.172 130.712 181.612 130.936C182.052 131.16 182.38 131.468 182.596 131.86C182.812 132.252 182.92 132.692 182.92 133.18C182.92 133.644 182.816 134.072 182.608 134.464C182.4 134.848 182.076 135.16 181.636 135.4C181.196 135.632 180.632 135.748 179.944 135.748H178.372V139H176.836ZM178.372 134.5H179.848C180.384 134.5 180.768 134.384 181 134.152C181.24 133.912 181.36 133.588 181.36 133.18C181.36 132.764 181.24 132.44 181 132.208C180.768 131.968 180.384 131.848 179.848 131.848H178.372V134.5ZM186.125 139V130.6H187.661V137.8H191.381V139H186.125ZM197.908 139.144C197.068 139.144 196.332 138.96 195.7 138.592C195.076 138.224 194.584 137.716 194.224 137.068C193.872 136.412 193.696 135.656 193.696 134.8C193.696 133.944 193.872 133.192 194.224 132.544C194.584 131.888 195.076 131.376 195.7 131.008C196.332 130.64 197.068 130.456 197.908 130.456C198.74 130.456 199.472 130.64 200.104 131.008C200.736 131.376 201.228 131.888 201.58 132.544C201.932 133.192 202.108 133.944 202.108 134.8C202.108 135.656 201.932 136.412 201.58 137.068C201.228 137.716 200.736 138.224 200.104 138.592C199.472 138.96 198.74 139.144 197.908 139.144ZM197.908 137.764C198.708 137.764 199.344 137.5 199.816 136.972C200.296 136.444 200.536 135.72 200.536 134.8C200.536 133.88 200.296 133.156 199.816 132.628C199.344 132.1 198.708 131.836 197.908 131.836C197.108 131.836 196.468 132.1 195.988 132.628C195.508 133.156 195.268 133.88 195.268 134.8C195.268 135.72 195.508 136.444 195.988 136.972C196.468 137.5 197.108 137.764 197.908 137.764ZM204.385 139L207.457 130.6H209.185L212.257 139H210.625L209.953 137.056H206.677L205.993 139H204.385ZM207.097 135.856H209.533L208.309 132.364L207.097 135.856ZM215.339 139V130.6H218.207C219.191 130.6 219.999 130.776 220.631 131.128C221.271 131.472 221.743 131.96 222.047 132.592C222.359 133.216 222.515 133.952 222.515 134.8C222.515 135.648 222.359 136.388 222.047 137.02C221.743 137.644 221.271 138.132 220.631 138.484C219.999 138.828 219.191 139 218.207 139H215.339ZM216.875 137.68H218.135C218.839 137.68 219.395 137.568 219.803 137.344C220.211 137.112 220.503 136.784 220.679 136.36C220.855 135.928 220.943 135.408 220.943 134.8C220.943 134.2 220.855 133.684 220.679 133.252C220.503 132.82 220.211 132.488 219.803 132.256C219.395 132.024 218.839 131.908 218.135 131.908H216.875V137.68Z" fill="black"/>
<path d="M331 136.124L335.623 141L347 129" stroke="black" stroke-width="2"/>
<path d="M471 136.124L475.623 141L487 129" stroke="black" stroke-width="2"/>
<path d="M611 136.124L615.623 141L627 129" stroke="black" stroke-width="2"/>
</g>
<path d="M0.471272 167H688.529" stroke="#DFDFDF"/>
<g clip-path="url(#clip3_0_1254)">
<path d="M24.816 203V194.6H30.3V195.836H26.352V198.14H29.94V199.34H26.352V201.764H30.3V203H24.816ZM33.7535 203V194.6H35.5775L38.2535 199.928L40.8935 194.6H42.7175V203H41.1815V197.204L38.8415 201.8H37.6295L35.2895 197.204V203H33.7535ZM46.3473 203V194.6H49.7193C50.5913 194.6 51.2553 194.804 51.7113 195.212C52.1753 195.612 52.4073 196.128 52.4073 196.76C52.4073 197.288 52.2633 197.712 51.9753 198.032C51.6953 198.344 51.3513 198.556 50.9433 198.668C51.4233 198.764 51.8193 199.004 52.1313 199.388C52.4433 199.764 52.5993 200.204 52.5993 200.708C52.5993 201.372 52.3593 201.92 51.8793 202.352C51.3993 202.784 50.7193 203 49.8393 203H46.3473ZM47.8833 198.128H49.4913C49.9233 198.128 50.2553 198.028 50.4873 197.828C50.7193 197.628 50.8353 197.344 50.8353 196.976C50.8353 196.624 50.7193 196.348 50.4873 196.148C50.2633 195.94 49.9233 195.836 49.4673 195.836H47.8833V198.128ZM47.8833 201.752H49.5993C50.0553 201.752 50.4073 201.648 50.6553 201.44C50.9113 201.224 51.0393 200.924 51.0393 200.54C51.0393 200.148 50.9073 199.84 50.6433 199.616C50.3793 199.392 50.0233 199.28 49.5753 199.28H47.8833V201.752ZM55.9176 203V194.6H61.4016V195.836H57.4536V198.14H61.0416V199.34H57.4536V201.764H61.4016V203H55.9176ZM64.8551 203V194.6H67.7231C68.7071 194.6 69.5151 194.776 70.1471 195.128C70.7871 195.472 71.2591 195.96 71.5631 196.592C71.8751 197.216 72.0311 197.952 72.0311 198.8C72.0311 199.648 71.8751 200.388 71.5631 201.02C71.2591 201.644 70.7871 202.132 70.1471 202.484C69.5151 202.828 68.7071 203 67.7231 203H64.8551ZM66.3911 201.68H67.6511C68.3551 201.68 68.9111 201.568 69.3191 201.344C69.7271 201.112 70.0191 200.784 70.1951 200.36C70.3711 199.928 70.4591 199.408 70.4591 198.8C70.4591 198.2 70.3711 197.684 70.1951 197.252C70.0191 196.82 69.7271 196.488 69.3191 196.256C68.9111 196.024 68.3551 195.908 67.6511 195.908H66.3911V201.68ZM75.3863 203V194.6H78.2543C79.2383 194.6 80.0463 194.776 80.6783 195.128C81.3183 195.472 81.7903 195.96 82.0943 196.592C82.4063 197.216 82.5623 197.952 82.5623 198.8C82.5623 199.648 82.4063 200.388 82.0943 201.02C81.7903 201.644 81.3183 202.132 80.6783 202.484C80.0463 202.828 79.2383 203 78.2543 203H75.3863ZM76.9223 201.68H78.1823C78.8863 201.68 79.4423 201.568 79.8503 201.344C80.2583 201.112 80.5503 200.784 80.7263 200.36C80.9023 199.928 80.9903 199.408 80.9903 198.8C80.9903 198.2 80.9023 197.684 80.7263 197.252C80.5503 196.82 80.2583 196.488 79.8503 196.256C79.4423 196.024 78.8863 195.908 78.1823 195.908H76.9223V201.68ZM85.9176 203V194.6H87.4536V203H85.9176ZM91.0816 203V194.6H92.6176L96.5656 200.516V194.6H98.1016V203H96.5656L92.6176 197.096V203H91.0816ZM105.402 203.144C104.61 203.144 103.918 202.964 103.326 202.604C102.734 202.244 102.274 201.744 101.946 201.104C101.618 200.456 101.454 199.704 101.454 198.848C101.454 197.984 101.622 197.224 101.958 196.568C102.302 195.904 102.786 195.388 103.41 195.02C104.042 194.644 104.79 194.456 105.654 194.456C106.638 194.456 107.454 194.692 108.102 195.164C108.75 195.636 109.17 196.288 109.362 197.12H107.646C107.518 196.728 107.286 196.424 106.95 196.208C106.614 195.984 106.182 195.872 105.654 195.872C104.814 195.872 104.166 196.14 103.71 196.676C103.254 197.204 103.026 197.932 103.026 198.86C103.026 199.788 103.25 200.508 103.698 201.02C104.154 201.524 104.77 201.776 105.546 201.776C106.306 201.776 106.878 201.572 107.262 201.164C107.654 200.748 107.89 200.204 107.97 199.532H105.846V198.38H109.518V203H108.102L107.982 201.896C107.71 202.296 107.37 202.604 106.962 202.82C106.554 203.036 106.034 203.144 105.402 203.144ZM121.675 203.144C120.827 203.144 120.099 202.964 119.491 202.604C118.883 202.236 118.415 201.728 118.087 201.08C117.759 200.424 117.595 199.668 117.595 198.812C117.595 197.956 117.759 197.2 118.087 196.544C118.415 195.888 118.883 195.376 119.491 195.008C120.099 194.64 120.827 194.456 121.675 194.456C122.683 194.456 123.507 194.708 124.147 195.212C124.795 195.708 125.199 196.408 125.359 197.312H123.667C123.563 196.856 123.339 196.5 122.995 196.244C122.659 195.98 122.211 195.848 121.651 195.848C120.875 195.848 120.267 196.112 119.827 196.64C119.387 197.168 119.167 197.892 119.167 198.812C119.167 199.732 119.387 200.456 119.827 200.984C120.267 201.504 120.875 201.764 121.651 201.764C122.211 201.764 122.659 201.644 122.995 201.404C123.339 201.156 123.563 200.816 123.667 200.384H125.359C125.199 201.248 124.795 201.924 124.147 202.412C123.507 202.9 122.683 203.144 121.675 203.144ZM131.958 203.144C131.342 203.144 130.786 203.024 130.29 202.784C129.794 202.536 129.398 202.164 129.102 201.668C128.814 201.172 128.67 200.544 128.67 199.784V194.6H130.206V199.796C130.206 200.452 130.362 200.94 130.674 201.26C130.994 201.58 131.434 201.74 131.994 201.74C132.546 201.74 132.982 201.58 133.302 201.26C133.622 200.94 133.782 200.452 133.782 199.796V194.6H135.318V199.784C135.318 200.544 135.166 201.172 134.862 201.668C134.558 202.164 134.15 202.536 133.638 202.784C133.134 203.024 132.574 203.144 131.958 203.144ZM141.754 203.144C141.138 203.144 140.594 203.04 140.122 202.832C139.65 202.616 139.278 202.312 139.006 201.92C138.734 201.52 138.594 201.036 138.586 200.468H140.206C140.222 200.86 140.362 201.192 140.626 201.464C140.898 201.728 141.27 201.86 141.742 201.86C142.15 201.86 142.474 201.764 142.714 201.572C142.954 201.372 143.074 201.108 143.074 200.78C143.074 200.436 142.966 200.168 142.75 199.976C142.542 199.784 142.262 199.628 141.91 199.508C141.558 199.388 141.182 199.26 140.782 199.124C140.134 198.9 139.638 198.612 139.294 198.26C138.958 197.908 138.79 197.44 138.79 196.856C138.782 196.36 138.898 195.936 139.138 195.584C139.386 195.224 139.722 194.948 140.146 194.756C140.57 194.556 141.058 194.456 141.61 194.456C142.17 194.456 142.662 194.556 143.086 194.756C143.518 194.956 143.854 195.236 144.094 195.596C144.342 195.956 144.474 196.384 144.49 196.88H142.846C142.838 196.584 142.722 196.324 142.498 196.1C142.282 195.868 141.978 195.752 141.586 195.752C141.25 195.744 140.966 195.828 140.734 196.004C140.51 196.172 140.398 196.42 140.398 196.748C140.398 197.028 140.486 197.252 140.662 197.42C140.838 197.58 141.078 197.716 141.382 197.828C141.686 197.94 142.034 198.06 142.426 198.188C142.842 198.332 143.222 198.5 143.566 198.692C143.91 198.884 144.186 199.14 144.394 199.46C144.602 199.772 144.706 200.176 144.706 200.672C144.706 201.112 144.594 201.52 144.37 201.896C144.146 202.272 143.814 202.576 143.374 202.808C142.934 203.032 142.394 203.144 141.754 203.144ZM149.897 203V195.836H147.449V194.6H153.893V195.836H151.433V203H149.897ZM160.662 203.144C159.822 203.144 159.086 202.96 158.454 202.592C157.83 202.224 157.338 201.716 156.978 201.068C156.626 200.412 156.45 199.656 156.45 198.8C156.45 197.944 156.626 197.192 156.978 196.544C157.338 195.888 157.83 195.376 158.454 195.008C159.086 194.64 159.822 194.456 160.662 194.456C161.494 194.456 162.226 194.64 162.858 195.008C163.49 195.376 163.982 195.888 164.334 196.544C164.686 197.192 164.862 197.944 164.862 198.8C164.862 199.656 164.686 200.412 164.334 201.068C163.982 201.716 163.49 202.224 162.858 202.592C162.226 202.96 161.494 203.144 160.662 203.144ZM160.662 201.764C161.462 201.764 162.098 201.5 162.57 200.972C163.05 200.444 163.29 199.72 163.29 198.8C163.29 197.88 163.05 197.156 162.57 196.628C162.098 196.1 161.462 195.836 160.662 195.836C159.862 195.836 159.222 196.1 158.742 196.628C158.262 197.156 158.022 197.88 158.022 198.8C158.022 199.72 158.262 200.444 158.742 200.972C159.222 201.5 159.862 201.764 160.662 201.764ZM168.218 203V194.6H170.042L172.718 199.928L175.358 194.6H177.182V203H175.646V197.204L173.306 201.8H172.094L169.754 197.204V203H168.218ZM189.475 203.144C188.627 203.144 187.899 202.964 187.291 202.604C186.683 202.236 186.215 201.728 185.887 201.08C185.559 200.424 185.395 199.668 185.395 198.812C185.395 197.956 185.559 197.2 185.887 196.544C186.215 195.888 186.683 195.376 187.291 195.008C187.899 194.64 188.627 194.456 189.475 194.456C190.483 194.456 191.307 194.708 191.947 195.212C192.595 195.708 192.999 196.408 193.159 197.312H191.467C191.363 196.856 191.139 196.5 190.795 196.244C190.459 195.98 190.011 195.848 189.451 195.848C188.675 195.848 188.067 196.112 187.627 196.64C187.187 197.168 186.967 197.892 186.967 198.812C186.967 199.732 187.187 200.456 187.627 200.984C188.067 201.504 188.675 201.764 189.451 201.764C190.011 201.764 190.459 201.644 190.795 201.404C191.139 201.156 191.363 200.816 191.467 200.384H193.159C192.999 201.248 192.595 201.924 191.947 202.412C191.307 202.9 190.483 203.144 189.475 203.144ZM200.455 203.144C199.615 203.144 198.879 202.96 198.247 202.592C197.623 202.224 197.131 201.716 196.771 201.068C196.419 200.412 196.243 199.656 196.243 198.8C196.243 197.944 196.419 197.192 196.771 196.544C197.131 195.888 197.623 195.376 198.247 195.008C198.879 194.64 199.615 194.456 200.455 194.456C201.287 194.456 202.019 194.64 202.651 195.008C203.283 195.376 203.775 195.888 204.127 196.544C204.479 197.192 204.655 197.944 204.655 198.8C204.655 199.656 204.479 200.412 204.127 201.068C203.775 201.716 203.283 202.224 202.651 202.592C202.019 202.96 201.287 203.144 200.455 203.144ZM200.455 201.764C201.255 201.764 201.891 201.5 202.363 200.972C202.843 200.444 203.083 199.72 203.083 198.8C203.083 197.88 202.843 197.156 202.363 196.628C201.891 196.1 201.255 195.836 200.455 195.836C199.655 195.836 199.015 196.1 198.535 196.628C198.055 197.156 197.815 197.88 197.815 198.8C197.815 199.72 198.055 200.444 198.535 200.972C199.015 201.5 199.655 201.764 200.455 201.764ZM208.011 203V194.6H209.547L213.495 200.516V194.6H215.031V203H213.495L209.547 197.096V203H208.011ZM220.616 203V195.836H218.168V194.6H224.612V195.836H222.152V203H220.616ZM227.75 203V194.6H233.234V195.836H229.286V198.14H232.874V199.34H229.286V201.764H233.234V203H227.75ZM236.687 203V194.6H238.223L242.171 200.516V194.6H243.707V203H242.171L238.223 197.096V203H236.687ZM249.292 203V195.836H246.844V194.6H253.288V195.836H250.828V203H249.292Z" fill="black"/>
<path opacity="0.01" d="M331 200.124L335.623 205L347 193" stroke="black" stroke-width="2"/>
<path d="M471 200.124L475.623 205L487 193" stroke="black" stroke-width="2"/>
<path d="M611 200.124L615.623 205L627 193" stroke="black" stroke-width="2"/>
</g>
<path d="M0.471272 231H688.529" stroke="#DFDFDF"/>
<g clip-path="url(#clip4_0_1254)">
<path d="M28.62 267.144C27.772 267.144 27.044 266.964 26.436 266.604C25.828 266.236 25.36 265.728 25.032 265.08C24.704 264.424 24.54 263.668 24.54 262.812C24.54 261.956 24.704 261.2 25.032 260.544C25.36 259.888 25.828 259.376 26.436 259.008C27.044 258.64 27.772 258.456 28.62 258.456C29.628 258.456 30.452 258.708 31.092 259.212C31.74 259.708 32.144 260.408 32.304 261.312H30.612C30.508 260.856 30.284 260.5 29.94 260.244C29.604 259.98 29.156 259.848 28.596 259.848C27.82 259.848 27.212 260.112 26.772 260.64C26.332 261.168 26.112 261.892 26.112 262.812C26.112 263.732 26.332 264.456 26.772 264.984C27.212 265.504 27.82 265.764 28.596 265.764C29.156 265.764 29.604 265.644 29.94 265.404C30.284 265.156 30.508 264.816 30.612 264.384H32.304C32.144 265.248 31.74 265.924 31.092 266.412C30.452 266.9 29.628 267.144 28.62 267.144ZM38.9037 267.144C38.2877 267.144 37.7317 267.024 37.2357 266.784C36.7397 266.536 36.3437 266.164 36.0477 265.668C35.7597 265.172 35.6157 264.544 35.6157 263.784V258.6H37.1517V263.796C37.1517 264.452 37.3077 264.94 37.6197 265.26C37.9397 265.58 38.3797 265.74 38.9397 265.74C39.4917 265.74 39.9277 265.58 40.2477 265.26C40.5677 264.94 40.7277 264.452 40.7277 263.796V258.6H42.2637V263.784C42.2637 264.544 42.1117 265.172 41.8077 265.668C41.5037 266.164 41.0957 266.536 40.5837 266.784C40.0797 267.024 39.5197 267.144 38.9037 267.144ZM48.6996 267.144C48.0836 267.144 47.5396 267.04 47.0676 266.832C46.5956 266.616 46.2236 266.312 45.9516 265.92C45.6796 265.52 45.5396 265.036 45.5316 264.468H47.1516C47.1676 264.86 47.3076 265.192 47.5716 265.464C47.8436 265.728 48.2156 265.86 48.6876 265.86C49.0956 265.86 49.4196 265.764 49.6596 265.572C49.8996 265.372 50.0196 265.108 50.0196 264.78C50.0196 264.436 49.9116 264.168 49.6956 263.976C49.4876 263.784 49.2076 263.628 48.8556 263.508C48.5036 263.388 48.1276 263.26 47.7276 263.124C47.0796 262.9 46.5836 262.612 46.2396 262.26C45.9036 261.908 45.7356 261.44 45.7356 260.856C45.7276 260.36 45.8436 259.936 46.0836 259.584C46.3316 259.224 46.6676 258.948 47.0916 258.756C47.5156 258.556 48.0036 258.456 48.5556 258.456C49.1156 258.456 49.6076 258.556 50.0316 258.756C50.4636 258.956 50.7996 259.236 51.0396 259.596C51.2876 259.956 51.4196 260.384 51.4356 260.88H49.7916C49.7836 260.584 49.6676 260.324 49.4436 260.1C49.2276 259.868 48.9236 259.752 48.5316 259.752C48.1956 259.744 47.9116 259.828 47.6796 260.004C47.4556 260.172 47.3436 260.42 47.3436 260.748C47.3436 261.028 47.4316 261.252 47.6076 261.42C47.7836 261.58 48.0236 261.716 48.3276 261.828C48.6316 261.94 48.9796 262.06 49.3716 262.188C49.7876 262.332 50.1676 262.5 50.5116 262.692C50.8556 262.884 51.1316 263.14 51.3396 263.46C51.5476 263.772 51.6516 264.176 51.6516 264.672C51.6516 265.112 51.5396 265.52 51.3156 265.896C51.0916 266.272 50.7596 266.576 50.3196 266.808C49.8796 267.032 49.3396 267.144 48.6996 267.144ZM56.8423 267V259.836H54.3943V258.6H60.8383V259.836H58.3783V267H56.8423ZM67.6075 267.144C66.7675 267.144 66.0315 266.96 65.3995 266.592C64.7755 266.224 64.2835 265.716 63.9235 265.068C63.5715 264.412 63.3955 263.656 63.3955 262.8C63.3955 261.944 63.5715 261.192 63.9235 260.544C64.2835 259.888 64.7755 259.376 65.3995 259.008C66.0315 258.64 66.7675 258.456 67.6075 258.456C68.4395 258.456 69.1715 258.64 69.8035 259.008C70.4355 259.376 70.9275 259.888 71.2795 260.544C71.6315 261.192 71.8075 261.944 71.8075 262.8C71.8075 263.656 71.6315 264.412 71.2795 265.068C70.9275 265.716 70.4355 266.224 69.8035 266.592C69.1715 266.96 68.4395 267.144 67.6075 267.144ZM67.6075 265.764C68.4075 265.764 69.0435 265.5 69.5155 264.972C69.9955 264.444 70.2355 263.72 70.2355 262.8C70.2355 261.88 69.9955 261.156 69.5155 260.628C69.0435 260.1 68.4075 259.836 67.6075 259.836C66.8075 259.836 66.1675 260.1 65.6875 260.628C65.2075 261.156 64.9675 261.88 64.9675 262.8C64.9675 263.72 65.2075 264.444 65.6875 264.972C66.1675 265.5 66.8075 265.764 67.6075 265.764ZM75.1637 267V258.6H76.9877L79.6637 263.928L82.3037 258.6H84.1277V267H82.5917V261.204L80.2517 265.8H79.0397L76.6997 261.204V267H75.1637ZM87.7574 267V258.6H89.2934V267H87.7574ZM92.6695 267V265.824L96.5335 259.884H92.7055V258.6H98.3095V259.776L94.4215 265.716H98.3335V267H92.6695ZM101.718 267V258.6H107.202V259.836H103.254V262.14H106.842V263.34H103.254V265.764H107.202V267H101.718ZM115.515 267V258.6H117.339L120.015 263.928L122.655 258.6H124.479V267H122.943V261.204L120.603 265.8H119.391L117.051 261.204V267H115.515ZM128.109 267V258.6H133.593V259.836H129.645V262.14H133.233V263.34H129.645V265.764H133.593V267H128.109ZM139.002 267V259.836H136.554V258.6H142.998V259.836H140.538V267H139.002ZM144.706 267L147.778 258.6H149.506L152.578 267H150.946L150.274 265.056H146.998L146.314 267H144.706ZM147.418 263.856H149.854L148.63 260.364L147.418 263.856ZM155.66 267V258.6H158.528C159.512 258.6 160.32 258.776 160.952 259.128C161.592 259.472 162.064 259.96 162.368 260.592C162.68 261.216 162.836 261.952 162.836 262.8C162.836 263.648 162.68 264.388 162.368 265.02C162.064 265.644 161.592 266.132 160.952 266.484C160.32 266.828 159.512 267 158.528 267H155.66ZM157.196 265.68H158.456C159.16 265.68 159.716 265.568 160.124 265.344C160.532 265.112 160.824 264.784 161 264.36C161.176 263.928 161.264 263.408 161.264 262.8C161.264 262.2 161.176 261.684 161 261.252C160.824 260.82 160.532 260.488 160.124 260.256C159.716 260.024 159.16 259.908 158.456 259.908H157.196V265.68ZM165.112 267L168.184 258.6H169.912L172.984 267H171.352L170.68 265.056H167.404L166.72 267H165.112ZM167.824 263.856H170.26L169.036 260.364L167.824 263.856ZM177.131 267V259.836H174.683V258.6H181.127V259.836H178.667V267H177.131ZM182.835 267L185.907 258.6H187.635L190.707 267H189.075L188.403 265.056H185.127L184.443 267H182.835ZM185.547 263.856H187.983L186.759 260.364L185.547 263.856Z" fill="black"/>
<path opacity="0.01" d="M331 264.124L335.623 269L347 257" stroke="black" stroke-width="2"/>
<path d="M471 264.124L475.623 269L487 257" stroke="black" stroke-width="2"/>
<path d="M611 264.124L615.623 269L627 257" stroke="black" stroke-width="2"/>
</g>
<path d="M0.471272 295H688.529" stroke="#DFDFDF"/>
<g clip-path="url(#clip5_0_1254)">
<path d="M24.276 331L27.348 322.6H29.076L32.148 331H30.516L29.844 329.056H26.568L25.884 331H24.276ZM26.988 327.856H29.424L28.2 324.364L26.988 327.856ZM35.2301 331V322.6H38.0981C39.0821 322.6 39.8901 322.776 40.5221 323.128C41.1621 323.472 41.6341 323.96 41.9381 324.592C42.2501 325.216 42.4061 325.952 42.4061 326.8C42.4061 327.648 42.2501 328.388 41.9381 329.02C41.6341 329.644 41.1621 330.132 40.5221 330.484C39.8901 330.828 39.0821 331 38.0981 331H35.2301ZM36.7661 329.68H38.0261C38.7301 329.68 39.2861 329.568 39.6941 329.344C40.1021 329.112 40.3941 328.784 40.5701 328.36C40.7461 327.928 40.8341 327.408 40.8341 326.8C40.8341 326.2 40.7461 325.684 40.5701 325.252C40.3941 324.82 40.1021 324.488 39.6941 324.256C39.2861 324.024 38.7301 323.908 38.0261 323.908H36.7661V329.68ZM47.9161 331L44.8441 322.6H46.4881L48.8641 329.428L51.2521 322.6H52.8721L49.8001 331H47.9161ZM54.2643 331L57.3363 322.6H59.0643L62.1363 331H60.5043L59.8323 329.056H56.5563L55.8723 331H54.2643ZM56.9763 327.856H59.4123L58.1883 324.364L56.9763 327.856ZM65.2183 331V322.6H66.7543L70.7023 328.516V322.6H72.2383V331H70.7023L66.7543 325.096V331H65.2183ZM79.6708 331.144C78.8228 331.144 78.0948 330.964 77.4868 330.604C76.8788 330.236 76.4108 329.728 76.0828 329.08C75.7548 328.424 75.5908 327.668 75.5908 326.812C75.5908 325.956 75.7548 325.2 76.0828 324.544C76.4108 323.888 76.8788 323.376 77.4868 323.008C78.0948 322.64 78.8228 322.456 79.6708 322.456C80.6788 322.456 81.5028 322.708 82.1428 323.212C82.7908 323.708 83.1948 324.408 83.3548 325.312H81.6628C81.5588 324.856 81.3348 324.5 80.9908 324.244C80.6548 323.98 80.2068 323.848 79.6468 323.848C78.8708 323.848 78.2628 324.112 77.8228 324.64C77.3828 325.168 77.1628 325.892 77.1628 326.812C77.1628 327.732 77.3828 328.456 77.8228 328.984C78.2628 329.504 78.8708 329.764 79.6468 329.764C80.2068 329.764 80.6548 329.644 80.9908 329.404C81.3348 329.156 81.5588 328.816 81.6628 328.384H83.3548C83.1948 329.248 82.7908 329.924 82.1428 330.412C81.5028 330.9 80.6788 331.144 79.6708 331.144ZM86.7144 331V322.6H92.1984V323.836H88.2504V326.14H91.8384V327.34H88.2504V329.764H92.1984V331H86.7144ZM95.6519 331V322.6H98.5199C99.5039 322.6 100.312 322.776 100.944 323.128C101.584 323.472 102.056 323.96 102.36 324.592C102.672 325.216 102.828 325.952 102.828 326.8C102.828 327.648 102.672 328.388 102.36 329.02C102.056 329.644 101.584 330.132 100.944 330.484C100.312 330.828 99.5039 331 98.5199 331H95.6519ZM97.1879 329.68H98.4479C99.1519 329.68 99.7079 329.568 100.116 329.344C100.524 329.112 100.816 328.784 100.992 328.36C101.168 327.928 101.256 327.408 101.256 326.8C101.256 326.2 101.168 325.684 100.992 325.252C100.816 324.82 100.524 324.488 100.116 324.256C99.7079 324.024 99.1519 323.908 98.4479 323.908H97.1879V329.68ZM111.043 331V322.6H112.867L115.543 327.928L118.183 322.6H120.007V331H118.471V325.204L116.131 329.8H114.919L112.579 325.204V331H111.043ZM123.636 331V322.6H129.12V323.836H125.172V326.14H128.76V327.34H125.172V329.764H129.12V331H123.636ZM134.53 331V323.836H132.082V322.6H138.526V323.836H136.066V331H134.53ZM141.664 331V322.6H144.748C145.42 322.6 145.972 322.716 146.404 322.948C146.844 323.172 147.172 323.48 147.388 323.872C147.604 324.256 147.712 324.684 147.712 325.156C147.712 325.668 147.576 326.136 147.304 326.56C147.04 326.984 146.624 327.292 146.056 327.484L147.796 331H146.032L144.472 327.688H143.2V331H141.664ZM143.2 326.56H144.652C145.164 326.56 145.54 326.436 145.78 326.188C146.02 325.94 146.14 325.612 146.14 325.204C146.14 324.804 146.02 324.484 145.78 324.244C145.548 324.004 145.168 323.884 144.64 323.884H143.2V326.56ZM151.14 331V322.6H152.676V331H151.14ZM160.108 331.144C159.26 331.144 158.532 330.964 157.924 330.604C157.316 330.236 156.848 329.728 156.52 329.08C156.192 328.424 156.028 327.668 156.028 326.812C156.028 325.956 156.192 325.2 156.52 324.544C156.848 323.888 157.316 323.376 157.924 323.008C158.532 322.64 159.26 322.456 160.108 322.456C161.116 322.456 161.94 322.708 162.58 323.212C163.228 323.708 163.632 324.408 163.792 325.312H162.1C161.996 324.856 161.772 324.5 161.428 324.244C161.092 323.98 160.644 323.848 160.084 323.848C159.308 323.848 158.7 324.112 158.26 324.64C157.82 325.168 157.6 325.892 157.6 326.812C157.6 327.732 157.82 328.456 158.26 328.984C158.7 329.504 159.308 329.764 160.084 329.764C160.644 329.764 161.092 329.644 161.428 329.404C161.772 329.156 161.996 328.816 162.1 328.384H163.792C163.632 329.248 163.228 329.924 162.58 330.412C161.94 330.9 161.116 331.144 160.108 331.144ZM170.02 331.144C169.404 331.144 168.86 331.04 168.388 330.832C167.916 330.616 167.544 330.312 167.272 329.92C167 329.52 166.86 329.036 166.852 328.468H168.472C168.488 328.86 168.628 329.192 168.892 329.464C169.164 329.728 169.536 329.86 170.008 329.86C170.416 329.86 170.74 329.764 170.98 329.572C171.22 329.372 171.34 329.108 171.34 328.78C171.34 328.436 171.232 328.168 171.016 327.976C170.808 327.784 170.528 327.628 170.176 327.508C169.824 327.388 169.448 327.26 169.048 327.124C168.4 326.9 167.904 326.612 167.56 326.26C167.224 325.908 167.056 325.44 167.056 324.856C167.048 324.36 167.164 323.936 167.404 323.584C167.652 323.224 167.988 322.948 168.412 322.756C168.836 322.556 169.324 322.456 169.876 322.456C170.436 322.456 170.928 322.556 171.352 322.756C171.784 322.956 172.12 323.236 172.36 323.596C172.608 323.956 172.74 324.384 172.756 324.88H171.112C171.104 324.584 170.988 324.324 170.764 324.1C170.548 323.868 170.244 323.752 169.852 323.752C169.516 323.744 169.232 323.828 169 324.004C168.776 324.172 168.664 324.42 168.664 324.748C168.664 325.028 168.752 325.252 168.928 325.42C169.104 325.58 169.344 325.716 169.648 325.828C169.952 325.94 170.3 326.06 170.692 326.188C171.108 326.332 171.488 326.5 171.832 326.692C172.176 326.884 172.452 327.14 172.66 327.46C172.868 327.772 172.972 328.176 172.972 328.672C172.972 329.112 172.86 329.52 172.636 329.896C172.412 330.272 172.08 330.576 171.64 330.808C171.2 331.032 170.66 331.144 170.02 331.144Z" fill="black"/>
<path opacity="0.01" d="M331 328.124L335.623 333L347 321" stroke="black" stroke-width="2"/>
<path opacity="0.01" d="M471 328.124L475.623 333L487 321" stroke="black" stroke-width="2"/>
<path d="M611 328.124L615.623 333L627 321" stroke="black" stroke-width="2"/>
</g>
<path d="M0.471272 359H688.529" stroke="#DFDFDF"/>
<g clip-path="url(#clip6_0_1254)">
<path d="M24.816 395V386.6H27.924C28.596 386.6 29.152 386.712 29.592 386.936C30.032 387.16 30.36 387.468 30.576 387.86C30.792 388.252 30.9 388.692 30.9 389.18C30.9 389.644 30.796 390.072 30.588 390.464C30.38 390.848 30.056 391.16 29.616 391.4C29.176 391.632 28.612 391.748 27.924 391.748H26.352V395H24.816ZM26.352 390.5H27.828C28.364 390.5 28.748 390.384 28.98 390.152C29.22 389.912 29.34 389.588 29.34 389.18C29.34 388.764 29.22 388.44 28.98 388.208C28.748 387.968 28.364 387.848 27.828 387.848H26.352V390.5ZM34.1051 395V386.6H35.6411V390.092H39.4091V386.6H40.9451V395H39.4091V391.34H35.6411V395H34.1051ZM48.5137 395.144C47.6737 395.144 46.9377 394.96 46.3057 394.592C45.6817 394.224 45.1897 393.716 44.8297 393.068C44.4777 392.412 44.3017 391.656 44.3017 390.8C44.3017 389.944 44.4777 389.192 44.8297 388.544C45.1897 387.888 45.6817 387.376 46.3057 387.008C46.9377 386.64 47.6737 386.456 48.5137 386.456C49.3457 386.456 50.0777 386.64 50.7097 387.008C51.3417 387.376 51.8337 387.888 52.1857 388.544C52.5377 389.192 52.7137 389.944 52.7137 390.8C52.7137 391.656 52.5377 392.412 52.1857 393.068C51.8337 393.716 51.3417 394.224 50.7097 394.592C50.0777 394.96 49.3457 395.144 48.5137 395.144ZM48.5137 393.764C49.3137 393.764 49.9497 393.5 50.4217 392.972C50.9017 392.444 51.1417 391.72 51.1417 390.8C51.1417 389.88 50.9017 389.156 50.4217 388.628C49.9497 388.1 49.3137 387.836 48.5137 387.836C47.7137 387.836 47.0737 388.1 46.5937 388.628C46.1137 389.156 45.8737 389.88 45.8737 390.8C45.8737 391.72 46.1137 392.444 46.5937 392.972C47.0737 393.5 47.7137 393.764 48.5137 393.764ZM57.7212 395V387.836H55.2732V386.6H61.7172V387.836H59.2572V395H57.7212ZM68.4864 395.144C67.6464 395.144 66.9104 394.96 66.2784 394.592C65.6544 394.224 65.1624 393.716 64.8024 393.068C64.4504 392.412 64.2744 391.656 64.2744 390.8C64.2744 389.944 64.4504 389.192 64.8024 388.544C65.1624 387.888 65.6544 387.376 66.2784 387.008C66.9104 386.64 67.6464 386.456 68.4864 386.456C69.3184 386.456 70.0504 386.64 70.6824 387.008C71.3144 387.376 71.8064 387.888 72.1584 388.544C72.5104 389.192 72.6864 389.944 72.6864 390.8C72.6864 391.656 72.5104 392.412 72.1584 393.068C71.8064 393.716 71.3144 394.224 70.6824 394.592C70.0504 394.96 69.3184 395.144 68.4864 395.144ZM68.4864 393.764C69.2864 393.764 69.9224 393.5 70.3944 392.972C70.8744 392.444 71.1144 391.72 71.1144 390.8C71.1144 389.88 70.8744 389.156 70.3944 388.628C69.9224 388.1 69.2864 387.836 68.4864 387.836C67.6864 387.836 67.0464 388.1 66.5664 388.628C66.0864 389.156 65.8464 389.88 65.8464 390.8C65.8464 391.72 66.0864 392.444 66.5664 392.972C67.0464 393.5 67.6864 393.764 68.4864 393.764ZM80.9019 395V386.6H83.7699C84.7539 386.6 85.5619 386.776 86.1939 387.128C86.8339 387.472 87.3059 387.96 87.6099 388.592C87.9219 389.216 88.0779 389.952 88.0779 390.8C88.0779 391.648 87.9219 392.388 87.6099 393.02C87.3059 393.644 86.8339 394.132 86.1939 394.484C85.5619 394.828 84.7539 395 83.7699 395H80.9019ZM82.4379 393.68H83.6979C84.4019 393.68 84.9579 393.568 85.3659 393.344C85.7739 393.112 86.0659 392.784 86.2419 392.36C86.4179 391.928 86.5059 391.408 86.5059 390.8C86.5059 390.2 86.4179 389.684 86.2419 389.252C86.0659 388.82 85.7739 388.488 85.3659 388.256C84.9579 388.024 84.4019 387.908 83.6979 387.908H82.4379V393.68ZM95.3692 395.144C94.5292 395.144 93.7932 394.96 93.1612 394.592C92.5372 394.224 92.0452 393.716 91.6852 393.068C91.3332 392.412 91.1572 391.656 91.1572 390.8C91.1572 389.944 91.3332 389.192 91.6852 388.544C92.0452 387.888 92.5372 387.376 93.1612 387.008C93.7932 386.64 94.5292 386.456 95.3692 386.456C96.2012 386.456 96.9332 386.64 97.5652 387.008C98.1972 387.376 98.6892 387.888 99.0412 388.544C99.3932 389.192 99.5692 389.944 99.5692 390.8C99.5692 391.656 99.3932 392.412 99.0412 393.068C98.6892 393.716 98.1972 394.224 97.5652 394.592C96.9332 394.96 96.2012 395.144 95.3692 395.144ZM95.3692 393.764C96.1692 393.764 96.8052 393.5 97.2772 392.972C97.7572 392.444 97.9972 391.72 97.9972 390.8C97.9972 389.88 97.7572 389.156 97.2772 388.628C96.8052 388.1 96.1692 387.836 95.3692 387.836C94.5692 387.836 93.9292 388.1 93.4492 388.628C92.9692 389.156 92.7292 389.88 92.7292 390.8C92.7292 391.72 92.9692 392.444 93.4492 392.972C93.9292 393.5 94.5692 393.764 95.3692 393.764ZM104.266 395L102.046 386.6H103.69L105.202 393.284L106.978 386.6H108.67L110.398 393.284L111.91 386.6H113.566L111.286 395H109.462L107.794 388.772L106.078 395H104.266ZM116.679 395V386.6H118.215L122.163 392.516V386.6H123.699V395H122.163L118.215 389.096V395H116.679ZM127.328 395V386.6H128.864V393.8H132.584V395H127.328ZM139.111 395.144C138.271 395.144 137.535 394.96 136.903 394.592C136.279 394.224 135.787 393.716 135.427 393.068C135.075 392.412 134.899 391.656 134.899 390.8C134.899 389.944 135.075 389.192 135.427 388.544C135.787 387.888 136.279 387.376 136.903 387.008C137.535 386.64 138.271 386.456 139.111 386.456C139.943 386.456 140.675 386.64 141.307 387.008C141.939 387.376 142.431 387.888 142.783 388.544C143.135 389.192 143.311 389.944 143.311 390.8C143.311 391.656 143.135 392.412 142.783 393.068C142.431 393.716 141.939 394.224 141.307 394.592C140.675 394.96 139.943 395.144 139.111 395.144ZM139.111 393.764C139.911 393.764 140.547 393.5 141.019 392.972C141.499 392.444 141.739 391.72 141.739 390.8C141.739 389.88 141.499 389.156 141.019 388.628C140.547 388.1 139.911 387.836 139.111 387.836C138.311 387.836 137.671 388.1 137.191 388.628C136.711 389.156 136.471 389.88 136.471 390.8C136.471 391.72 136.711 392.444 137.191 392.972C137.671 393.5 138.311 393.764 139.111 393.764ZM145.589 395L148.661 386.6H150.389L153.461 395H151.829L151.157 393.056H147.881L147.197 395H145.589ZM148.301 391.856H150.737L149.513 388.364L148.301 391.856ZM156.543 395V386.6H159.411C160.395 386.6 161.203 386.776 161.835 387.128C162.475 387.472 162.947 387.96 163.251 388.592C163.563 389.216 163.719 389.952 163.719 390.8C163.719 391.648 163.563 392.388 163.251 393.02C162.947 393.644 162.475 394.132 161.835 394.484C161.203 394.828 160.395 395 159.411 395H156.543ZM158.079 393.68H159.339C160.043 393.68 160.599 393.568 161.007 393.344C161.415 393.112 161.707 392.784 161.883 392.36C162.059 391.928 162.147 391.408 162.147 390.8C162.147 390.2 162.059 389.684 161.883 389.252C161.707 388.82 161.415 388.488 161.007 388.256C160.599 388.024 160.043 387.908 159.339 387.908H158.079V393.68ZM169.942 395.144C169.326 395.144 168.782 395.04 168.31 394.832C167.838 394.616 167.466 394.312 167.194 393.92C166.922 393.52 166.782 393.036 166.774 392.468H168.394C168.41 392.86 168.55 393.192 168.814 393.464C169.086 393.728 169.458 393.86 169.93 393.86C170.338 393.86 170.662 393.764 170.902 393.572C171.142 393.372 171.262 393.108 171.262 392.78C171.262 392.436 171.154 392.168 170.938 391.976C170.73 391.784 170.45 391.628 170.098 391.508C169.746 391.388 169.37 391.26 168.97 391.124C168.322 390.9 167.826 390.612 167.482 390.26C167.146 389.908 166.978 389.44 166.978 388.856C166.97 388.36 167.086 387.936 167.326 387.584C167.574 387.224 167.91 386.948 168.334 386.756C168.758 386.556 169.246 386.456 169.798 386.456C170.358 386.456 170.85 386.556 171.274 386.756C171.706 386.956 172.042 387.236 172.282 387.596C172.53 387.956 172.662 388.384 172.678 388.88H171.034C171.026 388.584 170.91 388.324 170.686 388.1C170.47 387.868 170.166 387.752 169.774 387.752C169.438 387.744 169.154 387.828 168.922 388.004C168.698 388.172 168.586 388.42 168.586 388.748C168.586 389.028 168.674 389.252 168.85 389.42C169.026 389.58 169.266 389.716 169.57 389.828C169.874 389.94 170.222 390.06 170.614 390.188C171.03 390.332 171.41 390.5 171.754 390.692C172.098 390.884 172.374 391.14 172.582 391.46C172.79 391.772 172.894 392.176 172.894 392.672C172.894 393.112 172.782 393.52 172.558 393.896C172.334 394.272 172.002 394.576 171.562 394.808C171.122 395.032 170.582 395.144 169.942 395.144Z" fill="black"/>
<path opacity="0.01" d="M331 392.124L335.623 397L347 385" stroke="black" stroke-width="2"/>
<path opacity="0.01" d="M471 392.124L475.623 397L487 385" stroke="black" stroke-width="2"/>
<path d="M611 392.124L615.623 397L627 385" stroke="black" stroke-width="2"/>
</g>
<path d="M0.471272 423H688.529" stroke="#DFDFDF"/>
<g clip-path="url(#clip7_0_1254)">
<path d="M27.684 459.144C27.068 459.144 26.524 459.04 26.052 458.832C25.58 458.616 25.208 458.312 24.936 457.92C24.664 457.52 24.524 457.036 24.516 456.468H26.136C26.152 456.86 26.292 457.192 26.556 457.464C26.828 457.728 27.2 457.86 27.672 457.86C28.08 457.86 28.404 457.764 28.644 457.572C28.884 457.372 29.004 457.108 29.004 456.78C29.004 456.436 28.896 456.168 28.68 455.976C28.472 455.784 28.192 455.628 27.84 455.508C27.488 455.388 27.112 455.26 26.712 455.124C26.064 454.9 25.568 454.612 25.224 454.26C24.888 453.908 24.72 453.44 24.72 452.856C24.712 452.36 24.828 451.936 25.068 451.584C25.316 451.224 25.652 450.948 26.076 450.756C26.5 450.556 26.988 450.456 27.54 450.456C28.1 450.456 28.592 450.556 29.016 450.756C29.448 450.956 29.784 451.236 30.024 451.596C30.272 451.956 30.404 452.384 30.42 452.88H28.776C28.768 452.584 28.652 452.324 28.428 452.1C28.212 451.868 27.908 451.752 27.516 451.752C27.18 451.744 26.896 451.828 26.664 452.004C26.44 452.172 26.328 452.42 26.328 452.748C26.328 453.028 26.416 453.252 26.592 453.42C26.768 453.58 27.008 453.716 27.312 453.828C27.616 453.94 27.964 454.06 28.356 454.188C28.772 454.332 29.152 454.5 29.496 454.692C29.84 454.884 30.116 455.14 30.324 455.46C30.532 455.772 30.636 456.176 30.636 456.672C30.636 457.112 30.524 457.52 30.3 457.896C30.076 458.272 29.744 458.576 29.304 458.808C28.864 459.032 28.324 459.144 27.684 459.144ZM33.9762 459V450.6H39.4602V451.836H35.5122V454.14H39.1002V455.34H35.5122V457.764H39.4602V459H33.9762ZM42.3737 459L45.4457 450.6H47.1737L50.2457 459H48.6137L47.9417 457.056H44.6657L43.9817 459H42.3737ZM45.0857 455.856H47.5217L46.2977 452.364L45.0857 455.856ZM53.3277 459V450.6H56.4117C57.0837 450.6 57.6357 450.716 58.0677 450.948C58.5077 451.172 58.8357 451.48 59.0517 451.872C59.2677 452.256 59.3757 452.684 59.3757 453.156C59.3757 453.668 59.2397 454.136 58.9677 454.56C58.7037 454.984 58.2877 455.292 57.7197 455.484L59.4597 459H57.6957L56.1357 455.688H54.8637V459H53.3277ZM54.8637 454.56H56.3157C56.8277 454.56 57.2037 454.436 57.4437 454.188C57.6837 453.94 57.8037 453.612 57.8037 453.204C57.8037 452.804 57.6837 452.484 57.4437 452.244C57.2117 452.004 56.8317 451.884 56.3037 451.884H54.8637V454.56ZM66.6083 459.144C65.7603 459.144 65.0323 458.964 64.4243 458.604C63.8163 458.236 63.3483 457.728 63.0203 457.08C62.6923 456.424 62.5283 455.668 62.5283 454.812C62.5283 453.956 62.6923 453.2 63.0203 452.544C63.3483 451.888 63.8163 451.376 64.4243 451.008C65.0323 450.64 65.7603 450.456 66.6083 450.456C67.6163 450.456 68.4403 450.708 69.0803 451.212C69.7283 451.708 70.1323 452.408 70.2923 453.312H68.6003C68.4963 452.856 68.2723 452.5 67.9283 452.244C67.5923 451.98 67.1443 451.848 66.5843 451.848C65.8083 451.848 65.2003 452.112 64.7603 452.64C64.3203 453.168 64.1003 453.892 64.1003 454.812C64.1003 455.732 64.3203 456.456 64.7603 456.984C65.2003 457.504 65.8083 457.764 66.5843 457.764C67.1443 457.764 67.5923 457.644 67.9283 457.404C68.2723 457.156 68.4963 456.816 68.6003 456.384H70.2923C70.1323 457.248 69.7283 457.924 69.0803 458.412C68.4403 458.9 67.6163 459.144 66.6083 459.144ZM73.6519 459V450.6H75.1879V454.092H78.9559V450.6H80.4919V459H78.9559V455.34H75.1879V459H73.6519ZM88.984 459V450.6H94.468V451.836H90.52V454.14H94.108V455.34H90.52V457.764H94.468V459H88.984ZM97.9215 459V450.6H99.4575L103.405 456.516V450.6H104.941V459H103.405L99.4575 453.096V459H97.9215ZM112.242 459.144C111.45 459.144 110.758 458.964 110.166 458.604C109.574 458.244 109.114 457.744 108.786 457.104C108.458 456.456 108.294 455.704 108.294 454.848C108.294 453.984 108.462 453.224 108.798 452.568C109.142 451.904 109.626 451.388 110.25 451.02C110.882 450.644 111.63 450.456 112.494 450.456C113.478 450.456 114.294 450.692 114.942 451.164C115.59 451.636 116.01 452.288 116.202 453.12H114.486C114.358 452.728 114.126 452.424 113.79 452.208C113.454 451.984 113.022 451.872 112.494 451.872C111.654 451.872 111.006 452.14 110.55 452.676C110.094 453.204 109.866 453.932 109.866 454.86C109.866 455.788 110.09 456.508 110.538 457.02C110.994 457.524 111.61 457.776 112.386 457.776C113.146 457.776 113.718 457.572 114.102 457.164C114.494 456.748 114.73 456.204 114.81 455.532H112.686V454.38H116.358V459H114.942L114.822 457.896C114.55 458.296 114.21 458.604 113.802 458.82C113.394 459.036 112.874 459.144 112.242 459.144ZM119.851 459V450.6H121.387V459H119.851ZM125.015 459V450.6H126.551L130.499 456.516V450.6H132.035V459H130.499L126.551 453.096V459H125.015ZM135.664 459V450.6H141.148V451.836H137.2V454.14H140.788V455.34H137.2V457.764H141.148V459H135.664ZM149.461 459V450.6H150.997V459H149.461ZM154.625 459V450.6H156.161L160.109 456.516V450.6H161.645V459H160.109L156.161 453.096V459H154.625ZM165.273 459V450.6H168.141C169.125 450.6 169.933 450.776 170.565 451.128C171.205 451.472 171.677 451.96 171.981 452.592C172.293 453.216 172.449 453.952 172.449 454.8C172.449 455.648 172.293 456.388 171.981 457.02C171.677 457.644 171.205 458.132 170.565 458.484C169.933 458.828 169.125 459 168.141 459H165.273ZM166.809 457.68H168.069C168.773 457.68 169.329 457.568 169.737 457.344C170.145 457.112 170.437 456.784 170.613 456.36C170.789 455.928 170.877 455.408 170.877 454.8C170.877 454.2 170.789 453.684 170.613 453.252C170.437 452.82 170.145 452.488 169.737 452.256C169.329 452.024 168.773 451.908 168.069 451.908H166.809V457.68ZM175.804 459V450.6H181.288V451.836H177.34V454.14H180.928V455.34H177.34V457.764H181.288V459H175.804ZM184.334 459L186.962 454.752L184.298 450.6H186.062L187.946 453.528L189.674 450.6H191.402L188.774 454.824L191.462 459H189.698L187.79 456.036L186.062 459H184.334ZM194.652 459V450.6H196.188V459H194.652ZM199.816 459V450.6H201.352L205.3 456.516V450.6H206.836V459H205.3L201.352 453.096V459H199.816ZM214.136 459.144C213.344 459.144 212.652 458.964 212.06 458.604C211.468 458.244 211.008 457.744 210.68 457.104C210.352 456.456 210.188 455.704 210.188 454.848C210.188 453.984 210.356 453.224 210.692 452.568C211.036 451.904 211.52 451.388 212.144 451.02C212.776 450.644 213.524 450.456 214.388 450.456C215.372 450.456 216.188 450.692 216.836 451.164C217.484 451.636 217.904 452.288 218.096 453.12H216.38C216.252 452.728 216.02 452.424 215.684 452.208C215.348 451.984 214.916 451.872 214.388 451.872C213.548 451.872 212.9 452.14 212.444 452.676C211.988 453.204 211.76 453.932 211.76 454.86C211.76 455.788 211.984 456.508 212.432 457.02C212.888 457.524 213.504 457.776 214.28 457.776C215.04 457.776 215.612 457.572 215.996 457.164C216.388 456.748 216.624 456.204 216.704 455.532H214.58V454.38H218.252V459H216.836L216.716 457.896C216.444 458.296 216.104 458.604 215.696 458.82C215.288 459.036 214.768 459.144 214.136 459.144Z" fill="black"/>
<path opacity="0.01" d="M331 456.124L335.623 461L347 449" stroke="black" stroke-width="2"/>
<path opacity="0.01" d="M471 456.124L475.623 461L487 449" stroke="black" stroke-width="2"/>
<path d="M611 456.124L615.623 461L627 449" stroke="black" stroke-width="2"/>
</g>
<path d="M0.471272 487H688.529" stroke="#DFDFDF"/>
<g clip-path="url(#clip8_0_1254)">
<path d="M28.62 523.144C27.772 523.144 27.044 522.964 26.436 522.604C25.828 522.236 25.36 521.728 25.032 521.08C24.704 520.424 24.54 519.668 24.54 518.812C24.54 517.956 24.704 517.2 25.032 516.544C25.36 515.888 25.828 515.376 26.436 515.008C27.044 514.64 27.772 514.456 28.62 514.456C29.628 514.456 30.452 514.708 31.092 515.212C31.74 515.708 32.144 516.408 32.304 517.312H30.612C30.508 516.856 30.284 516.5 29.94 516.244C29.604 515.98 29.156 515.848 28.596 515.848C27.82 515.848 27.212 516.112 26.772 516.64C26.332 517.168 26.112 517.892 26.112 518.812C26.112 519.732 26.332 520.456 26.772 520.984C27.212 521.504 27.82 521.764 28.596 521.764C29.156 521.764 29.604 521.644 29.94 521.404C30.284 521.156 30.508 520.816 30.612 520.384H32.304C32.144 521.248 31.74 521.924 31.092 522.412C30.452 522.9 29.628 523.144 28.62 523.144ZM38.9037 523.144C38.2877 523.144 37.7317 523.024 37.2357 522.784C36.7397 522.536 36.3437 522.164 36.0477 521.668C35.7597 521.172 35.6157 520.544 35.6157 519.784V514.6H37.1517V519.796C37.1517 520.452 37.3077 520.94 37.6197 521.26C37.9397 521.58 38.3797 521.74 38.9397 521.74C39.4917 521.74 39.9277 521.58 40.2477 521.26C40.5677 520.94 40.7277 520.452 40.7277 519.796V514.6H42.2637V519.784C42.2637 520.544 42.1117 521.172 41.8077 521.668C41.5037 522.164 41.0957 522.536 40.5837 522.784C40.0797 523.024 39.5197 523.144 38.9037 523.144ZM48.6996 523.144C48.0836 523.144 47.5396 523.04 47.0676 522.832C46.5956 522.616 46.2236 522.312 45.9516 521.92C45.6796 521.52 45.5396 521.036 45.5316 520.468H47.1516C47.1676 520.86 47.3076 521.192 47.5716 521.464C47.8436 521.728 48.2156 521.86 48.6876 521.86C49.0956 521.86 49.4196 521.764 49.6596 521.572C49.8996 521.372 50.0196 521.108 50.0196 520.78C50.0196 520.436 49.9116 520.168 49.6956 519.976C49.4876 519.784 49.2076 519.628 48.8556 519.508C48.5036 519.388 48.1276 519.26 47.7276 519.124C47.0796 518.9 46.5836 518.612 46.2396 518.26C45.9036 517.908 45.7356 517.44 45.7356 516.856C45.7276 516.36 45.8436 515.936 46.0836 515.584C46.3316 515.224 46.6676 514.948 47.0916 514.756C47.5156 514.556 48.0036 514.456 48.5556 514.456C49.1156 514.456 49.6076 514.556 50.0316 514.756C50.4636 514.956 50.7996 515.236 51.0396 515.596C51.2876 515.956 51.4196 516.384 51.4356 516.88H49.7916C49.7836 516.584 49.6676 516.324 49.4436 516.1C49.2276 515.868 48.9236 515.752 48.5316 515.752C48.1956 515.744 47.9116 515.828 47.6796 516.004C47.4556 516.172 47.3436 516.42 47.3436 516.748C47.3436 517.028 47.4316 517.252 47.6076 517.42C47.7836 517.58 48.0236 517.716 48.3276 517.828C48.6316 517.94 48.9796 518.06 49.3716 518.188C49.7876 518.332 50.1676 518.5 50.5116 518.692C50.8556 518.884 51.1316 519.14 51.3396 519.46C51.5476 519.772 51.6516 520.176 51.6516 520.672C51.6516 521.112 51.5396 521.52 51.3156 521.896C51.0916 522.272 50.7596 522.576 50.3196 522.808C49.8796 523.032 49.3396 523.144 48.6996 523.144ZM56.8423 523V515.836H54.3943V514.6H60.8383V515.836H58.3783V523H56.8423ZM67.6075 523.144C66.7675 523.144 66.0315 522.96 65.3995 522.592C64.7755 522.224 64.2835 521.716 63.9235 521.068C63.5715 520.412 63.3955 519.656 63.3955 518.8C63.3955 517.944 63.5715 517.192 63.9235 516.544C64.2835 515.888 64.7755 515.376 65.3995 515.008C66.0315 514.64 66.7675 514.456 67.6075 514.456C68.4395 514.456 69.1715 514.64 69.8035 515.008C70.4355 515.376 70.9275 515.888 71.2795 516.544C71.6315 517.192 71.8075 517.944 71.8075 518.8C71.8075 519.656 71.6315 520.412 71.2795 521.068C70.9275 521.716 70.4355 522.224 69.8035 522.592C69.1715 522.96 68.4395 523.144 67.6075 523.144ZM67.6075 521.764C68.4075 521.764 69.0435 521.5 69.5155 520.972C69.9955 520.444 70.2355 519.72 70.2355 518.8C70.2355 517.88 69.9955 517.156 69.5155 516.628C69.0435 516.1 68.4075 515.836 67.6075 515.836C66.8075 515.836 66.1675 516.1 65.6875 516.628C65.2075 517.156 64.9675 517.88 64.9675 518.8C64.9675 519.72 65.2075 520.444 65.6875 520.972C66.1675 521.5 66.8075 521.764 67.6075 521.764ZM75.1637 523V514.6H76.9877L79.6637 519.928L82.3037 514.6H84.1277V523H82.5917V517.204L80.2517 521.8H79.0397L76.6997 517.204V523H75.1637ZM92.0768 523L95.1488 514.6H96.8768L99.9488 523H98.3168L97.6448 521.056H94.3688L93.6848 523H92.0768ZM94.7888 519.856H97.2248L96.0008 516.364L94.7888 519.856ZM103.031 523V514.6H104.567L108.515 520.516V514.6H110.051V523H108.515L104.567 517.096V523H103.031ZM113.139 523L116.211 514.6H117.939L121.011 523H119.379L118.707 521.056H115.431L114.747 523H113.139ZM115.851 519.856H118.287L117.063 516.364L115.851 519.856ZM124.093 523V514.6H125.629V521.8H129.349V523H124.093ZM133.679 523V520.012L130.859 514.6H132.599L134.459 518.476L136.307 514.6H138.023L135.215 520.012V523H133.679ZM142.963 523V515.836H140.515V514.6H146.959V515.836H144.499V523H142.963ZM150.097 523V514.6H151.633V523H150.097ZM159.065 523.144C158.217 523.144 157.489 522.964 156.881 522.604C156.273 522.236 155.805 521.728 155.477 521.08C155.149 520.424 154.985 519.668 154.985 518.812C154.985 517.956 155.149 517.2 155.477 516.544C155.805 515.888 156.273 515.376 156.881 515.008C157.489 514.64 158.217 514.456 159.065 514.456C160.073 514.456 160.897 514.708 161.537 515.212C162.185 515.708 162.589 516.408 162.749 517.312H161.057C160.953 516.856 160.729 516.5 160.385 516.244C160.049 515.98 159.601 515.848 159.041 515.848C158.265 515.848 157.657 516.112 157.217 516.64C156.777 517.168 156.557 517.892 156.557 518.812C156.557 519.732 156.777 520.456 157.217 520.984C157.657 521.504 158.265 521.764 159.041 521.764C159.601 521.764 160.049 521.644 160.385 521.404C160.729 521.156 160.953 520.816 161.057 520.384H162.749C162.589 521.248 162.185 521.924 161.537 522.412C160.897 522.9 160.073 523.144 159.065 523.144ZM168.977 523.144C168.361 523.144 167.817 523.04 167.345 522.832C166.873 522.616 166.501 522.312 166.229 521.92C165.957 521.52 165.817 521.036 165.809 520.468H167.429C167.445 520.86 167.585 521.192 167.849 521.464C168.121 521.728 168.493 521.86 168.965 521.86C169.373 521.86 169.697 521.764 169.937 521.572C170.177 521.372 170.297 521.108 170.297 520.78C170.297 520.436 170.189 520.168 169.973 519.976C169.765 519.784 169.485 519.628 169.133 519.508C168.781 519.388 168.405 519.26 168.005 519.124C167.357 518.9 166.861 518.612 166.517 518.26C166.181 517.908 166.013 517.44 166.013 516.856C166.005 516.36 166.121 515.936 166.361 515.584C166.609 515.224 166.945 514.948 167.369 514.756C167.793 514.556 168.281 514.456 168.833 514.456C169.393 514.456 169.885 514.556 170.309 514.756C170.741 514.956 171.077 515.236 171.317 515.596C171.565 515.956 171.697 516.384 171.713 516.88H170.069C170.061 516.584 169.945 516.324 169.721 516.1C169.505 515.868 169.201 515.752 168.809 515.752C168.473 515.744 168.189 515.828 167.957 516.004C167.733 516.172 167.621 516.42 167.621 516.748C167.621 517.028 167.709 517.252 167.885 517.42C168.061 517.58 168.301 517.716 168.605 517.828C168.909 517.94 169.257 518.06 169.649 518.188C170.065 518.332 170.445 518.5 170.789 518.692C171.133 518.884 171.409 519.14 171.617 519.46C171.825 519.772 171.929 520.176 171.929 520.672C171.929 521.112 171.817 521.52 171.593 521.896C171.369 522.272 171.037 522.576 170.597 522.808C170.157 523.032 169.617 523.144 168.977 523.144Z" fill="black"/>
<path opacity="0.01" d="M331 520.124L335.623 525L347 513" stroke="black" stroke-width="2"/>
<path opacity="0.01" d="M471 520.124L475.623 525L487 513" stroke="black" stroke-width="2"/>
<path d="M611 520.124L615.623 525L627 513" stroke="black" stroke-width="2"/>
</g>
<path d="M0.471272 551H688.529" stroke="#DFDFDF"/>
</g>
<defs>
<clipPath id="clip0_0_1254">
<rect width="689" height="552" fill="white"/>
</clipPath>
<clipPath id="clip1_0_1254">
<rect width="603" height="16" fill="white" transform="translate(24 63)"/>
</clipPath>
<clipPath id="clip2_0_1254">
<rect width="603" height="16" fill="white" transform="translate(24 127)"/>
</clipPath>
<clipPath id="clip3_0_1254">
<rect width="603" height="16" fill="white" transform="translate(24 191)"/>
</clipPath>
<clipPath id="clip4_0_1254">
<rect width="603" height="16" fill="white" transform="translate(24 255)"/>
</clipPath>
<clipPath id="clip5_0_1254">
<rect width="603" height="16" fill="white" transform="translate(24 319)"/>
</clipPath>
<clipPath id="clip6_0_1254">
<rect width="603" height="16" fill="white" transform="translate(24 383)"/>
</clipPath>
<clipPath id="clip7_0_1254">
<rect width="603" height="16" fill="white" transform="translate(24 447)"/>
</clipPath>
<clipPath id="clip8_0_1254">
<rect width="603" height="16" fill="white" transform="translate(24 511)"/>
</clipPath>
</defs>
</svg>
