<svg width="72" height="72" viewBox="0 0 72 72" fill="none" xmlns="http://www.w3.org/2000/svg">
<path fill-rule="evenodd" clip-rule="evenodd" d="M68.3294 0.000222958H52.2987C50.3208 0.000222958 48.6408 1.54565 48.6408 3.52364V9.75792H12.2925C8.60219 9.7689 5.61701 12.7645 5.61817 16.4542V27.7949H4.89397C2.16809 27.7949 9.96211e-05 30.0622 9.96211e-05 32.791V66.9591C-0.00740807 68.2597 0.506003 69.5094 1.42656 70.4288C2.34654 71.3482 3.59629 71.861 4.89685 71.8524H30.9826C32.0499 71.8616 33.0738 71.4343 33.8182 70.6696C34.5609 69.9038 35.0391 68.9319 34.8913 67.8716V62.0947H62.4671C66.1666 62.0883 69.1691 59.0985 69.1911 55.3984V51.1692C69.1737 50.5051 68.632 49.9749 67.9679 49.9715H66.2342V38.4396H68.3294C70.3074 38.4396 71.8522 36.7608 71.8522 34.7828V3.52364C71.8632 2.58576 71.4959 1.68368 70.8324 1.02012C70.1694 0.357127 69.2667 -0.0107498 68.3294 0.000222958ZM51.0063 7.68811H69.4868V28.8298H51.0063V7.68811ZM68.3294 2.36573H52.2987C51.6254 2.36573 51.0063 2.85026 51.0063 3.52364V5.32261H69.4868V3.52364C69.4989 3.21352 69.3805 2.91206 69.161 2.69202C68.941 2.47257 68.6395 2.35418 68.3294 2.36573ZM7.98367 16.4542C7.98078 14.0702 9.90795 12.1332 12.2925 12.1234H48.6408V15.5238H12.2197C11.5666 15.5238 11.0884 16.1181 11.0884 16.7713V27.7949H7.98367V16.4542ZM30.9826 69.4869C31.421 69.5007 31.8455 69.3333 32.1562 69.0237C32.4414 68.7251 32.5887 68.3214 32.5627 67.9097C32.5627 67.9036 32.5538 67.9016 32.5448 67.8996C32.5359 67.8976 32.5269 67.8955 32.5269 67.8895V32.791C32.5269 31.3657 31.4273 30.1604 29.9986 30.1604H4.89685C3.47154 30.1604 2.3656 31.3657 2.3656 32.7944V66.9556C2.35694 67.6307 2.62144 68.2799 3.09847 68.7569C3.57608 69.2333 4.22578 69.4967 4.9009 69.4869H30.9826ZM30.002 27.7949H13.4539V17.8893H48.6408V34.7828C48.6708 36.7908 50.2913 38.4108 52.2987 38.4396H58.3985V49.9715H43.9964C43.6655 49.9744 43.3501 50.1153 43.1266 50.3601L42.0103 51.5539C41.1902 52.4352 40.0392 52.9336 38.8351 52.9284H34.8913V32.7875C34.8913 30.0622 32.7308 27.7949 30.002 27.7949ZM62.4671 59.7292C64.8609 59.724 66.8048 57.7928 66.8256 55.3984V52.337H44.515L43.7498 53.1536C42.4816 54.5211 40.6999 55.2967 38.8351 55.2939H34.8913V59.7292H62.4671ZM63.8687 49.9715H60.764V38.4396H63.8687V49.9715ZM52.2987 36.0741H68.3294C69.0028 36.0741 69.4868 35.4568 69.4868 34.7828V31.1953H51.0063V34.7828C51.0346 35.4845 51.5976 36.047 52.2987 36.0741Z" fill="black"/>
</svg>
