<svg width="91" height="72" viewBox="0 0 91 72" fill="none" xmlns="http://www.w3.org/2000/svg">
<g id="002-slider">
<path id="Shape" fill-rule="evenodd" clip-rule="evenodd" d="M76.1241 5.27213H85.0171C87.9641 5.27213 90.3529 7.66097 90.3529 10.6079V18.7402C90.3529 19.6861 89.6415 20.514 88.6978 20.5782C87.6623 20.6488 86.7957 19.8248 86.7957 18.8039V10.6079C86.794 9.6297 85.9954 8.83111 85.0171 8.82933H76.1241V45.4685H85.0171C85.9954 45.4667 86.794 44.6681 86.7957 43.6899V34.8094C86.7957 33.7886 87.6623 32.9646 88.6978 33.035C89.6415 33.0992 90.3529 33.9272 90.3529 34.873V43.6899C90.3529 46.6369 87.9641 49.0257 85.0171 49.0257H76.1241V52.6466C76.1241 53.6289 75.3279 54.4252 74.3455 54.4252H16.0074C15.0251 54.4252 14.2288 53.6289 14.2288 52.6466V49.0894H5.3358C2.38884 49.0894 0 46.7006 0 43.7536V34.9367C0 33.9908 0.71144 33.1629 1.65517 33.0987C2.69067 33.0281 3.5572 33.8521 3.5572 34.873V43.7536C3.55898 44.7318 4.35757 45.5304 5.3358 45.5322H14.2288V8.89301H5.3358C4.35757 8.89478 3.55898 9.69338 3.5572 10.6716V18.8676C3.5572 19.8885 2.69067 20.7125 1.65517 20.6419C0.71144 20.5777 0 19.7498 0 18.8039V10.6716C0 7.72464 2.38884 5.3358 5.3358 5.3358H14.2288V1.7786C14.2288 0.79628 15.0251 0 16.0074 0H74.3455C75.3279 0 76.1241 0.79628 76.1241 1.7786V5.27213ZM69.0097 16.7189C69.0097 22.0148 64.7012 26.3233 59.4053 26.3233C54.1093 26.3233 49.8008 22.0148 49.8008 16.7189C49.8008 11.4229 54.1093 7.1144 59.4053 7.1144C64.7012 7.1144 69.0097 11.4229 69.0097 16.7189ZM45.1765 57.6267C41.2536 57.6267 38.0621 60.8182 38.0621 64.7411C38.0621 68.664 41.2536 71.8555 45.1765 71.8555C49.0994 71.8555 52.2909 68.664 52.2909 64.7411C52.2909 60.8182 49.0994 57.6267 45.1765 57.6267ZM45.1765 68.2983C43.215 68.2983 41.6193 66.7025 41.6193 64.7411C41.6193 62.7796 43.215 61.1839 45.1765 61.1839C47.1379 61.1839 48.7337 62.7796 48.7337 64.7411C48.7337 66.7025 47.1379 68.2983 45.1765 68.2983ZM14.2288 64.7411C14.2288 61.4066 16.9415 58.6938 20.2761 58.6938C23.6106 58.6938 26.3233 61.4066 26.3233 64.7411C26.3233 68.0756 23.6106 70.7883 20.2761 70.7883C16.9415 70.7883 14.2288 68.0756 14.2288 64.7411ZM20.2761 67.2311C18.903 67.2311 17.786 66.1142 17.786 64.7411C17.786 63.368 18.903 62.251 20.2761 62.251C21.6491 62.251 22.7661 63.368 22.7661 64.7411C22.7661 66.1142 21.6491 67.2311 20.2761 67.2311ZM64.0296 64.7411C64.0296 61.4066 66.7424 58.6938 70.0769 58.6938C73.4114 58.6938 76.1241 61.4066 76.1241 64.7411C76.1241 68.0756 73.4114 70.7883 70.0769 70.7883C66.7424 70.7883 64.0296 68.0756 64.0296 64.7411ZM70.0769 67.2311C68.7038 67.2311 67.5868 66.1142 67.5868 64.7411C67.5868 63.368 68.7038 62.251 70.0769 62.251C71.45 62.251 72.5669 63.368 72.5669 64.7411C72.5669 66.1142 71.45 67.2311 70.0769 67.2311ZM59.4053 10.6716C62.7398 10.6716 65.4525 13.3843 65.4525 16.7189C65.4525 20.0534 62.7398 22.7661 59.4053 22.7661C56.0708 22.7661 53.358 20.0534 53.358 16.7189C53.358 13.3843 56.0708 10.6716 59.4053 10.6716ZM90.3529 26.8693C90.3529 25.8893 89.5544 25.0907 88.5743 25.0907C87.5943 25.0907 86.7957 25.8893 86.7957 26.8693C86.7957 27.8493 87.5943 28.6479 88.5743 28.6479C89.5544 28.6479 90.3529 27.8493 90.3529 26.8693ZM1.7786 28.6479C0.798592 28.6479 0 27.8511 0 26.8693C0 25.8893 0.798592 25.0907 1.7786 25.0907C2.75861 25.0907 3.5572 25.8893 3.5572 26.8693C3.5572 27.8511 2.75861 28.6479 1.7786 28.6479ZM72.5669 3.5572V50.1871L48.8713 28.0368C45.8518 25.2142 41.1214 25.2143 38.1021 28.0368L32.7839 33.0082L19.7804 16.7539C19.2454 16.0851 18.5572 15.5832 17.7858 15.2785V3.5572H72.5669ZM35.5011 42.0986L17.786 19.955V50.868H68.0861L46.4423 30.6353C44.7852 29.0862 42.1886 29.0862 40.5315 30.6353L35.0128 35.794L38.2787 39.8764C39.7589 41.7265 36.9812 43.9487 35.5011 42.0986Z" fill="black"/>
</g>
</svg>
