<svg width="81" height="72" viewBox="0 0 81 72" fill="none" xmlns="http://www.w3.org/2000/svg">
<g id="001-www">
<path id="Shape" fill-rule="evenodd" clip-rule="evenodd" d="M34.8242 40.2353C34.8242 32.6238 41.0166 26.4314 48.6281 26.4314C56.2397 26.4314 62.4321 32.6238 62.4321 40.2353C62.4321 47.8468 56.2397 54.0392 48.6281 54.0392C41.0166 54.0392 34.8242 47.8468 34.8242 40.2353ZM37.9615 40.2353C37.9615 46.1171 42.7464 50.902 48.6281 50.902C54.5099 50.902 59.2948 46.1171 59.2948 40.2353C59.2948 34.3536 54.5099 29.5687 48.6281 29.5687C42.7464 29.5687 37.9615 34.3536 37.9615 40.2353Z" fill="black"/>
<path id="Path" d="M48.6282 33.1771C47.7618 33.1771 47.0596 33.8793 47.0596 34.7457C47.0596 35.6121 47.7618 36.3143 48.6282 36.3143C50.79 36.3143 52.5492 38.0735 52.5492 40.2353C52.5492 41.1017 53.2514 41.8039 54.1178 41.8039C54.9842 41.8039 55.6864 41.1017 55.6864 40.2353C55.6864 36.3431 52.5204 33.1771 48.6282 33.1771Z" fill="black"/>
<path id="Path_2" d="M9.66958 11.9062C9.2713 11.1372 8.32522 10.8364 7.55561 11.2341C6.786 11.6323 6.48514 12.579 6.88343 13.3486L11.1059 21.5055C11.3791 22.0337 11.9318 22.3566 12.5225 22.3529C13.1169 22.3437 13.6555 21.9994 13.9128 21.4632L16.4692 16.1409L19.2456 21.5055C19.5158 22.0263 20.0532 22.3529 20.6389 22.3529H20.6622C21.2572 22.3437 21.7952 21.9994 22.0532 21.4632L25.9704 13.3064C26.3454 12.5257 26.0164 11.5882 25.2358 11.2132C24.4545 10.8382 23.5176 11.1673 23.1426 11.9485L20.5862 17.2708L17.8093 11.9062C17.536 11.3781 16.9845 11.0539 16.3932 11.0588C15.7983 11.068 15.2597 11.4124 15.0023 11.9485L12.4465 17.2708L9.66958 11.9062Z" fill="black"/>
<path id="Path_3" d="M19.763 3.21569C20.176 3.21569 20.5804 3.04779 20.872 2.75613C21.1643 2.46446 21.3316 2.05944 21.3316 1.64706C21.3316 1.23468 21.1643 0.829656 20.872 0.537989C20.5804 0.246322 20.176 0.0784302 19.763 0.0784302C19.3506 0.0784302 18.9462 0.246322 18.6545 0.537989C18.3622 0.829656 18.1943 1.23468 18.1943 1.64706C18.1943 2.05944 18.3622 2.46446 18.6545 2.75613C18.9462 3.04779 19.3506 3.21569 19.763 3.21569Z" fill="black"/>
<path id="Shape_2" fill-rule="evenodd" clip-rule="evenodd" d="M80.3137 6.35294V27.0588C80.3137 30.5184 77.4994 33.3333 74.0392 33.3333H67.8168C68.595 35.4902 69.0202 37.8137 69.0202 40.2353C69.0202 46.6422 66.0496 52.367 61.4148 56.1078L73.4522 68.1458C74.3027 68.9963 75.6869 68.9963 76.5374 68.1458C77.3879 67.2947 77.3879 65.9105 76.5374 65.0601L71.6458 60.1679C71.0331 59.5551 71.0331 58.5625 71.6458 57.9498C72.258 57.337 73.2512 57.3376 73.864 57.9498L78.7555 62.8413C80.8297 64.9154 80.8297 68.2898 78.7555 70.364C77.7188 71.4007 76.3566 71.9191 74.9945 71.9191C73.6324 71.9191 72.2702 71.4007 71.2335 70.364L58.7837 57.9142C55.7917 59.6397 52.3229 60.6274 48.6281 60.6274C37.3836 60.6274 28.2359 51.4798 28.2359 40.2353C28.2359 37.8137 28.6612 35.4902 29.4393 33.3333H6.27451C2.81495 33.3333 0 30.519 0 27.0588V6.35294C0 2.89338 2.81495 0.0784302 6.27451 0.0784302H12.7047C13.5711 0.0784302 14.2733 0.780636 14.2733 1.64706C14.2733 2.51348 13.5711 3.21569 12.7047 3.21569H6.27451C4.54473 3.21569 3.13725 4.62316 3.13725 6.35294V27.0588C3.13725 28.7886 4.54473 30.1961 6.27451 30.1961H30.8842C32.9718 26.5208 36.1679 23.5551 40.0147 21.7549C39.9528 21.6771 39.8958 21.5956 39.8493 21.5055L37.0729 16.1415L34.5165 21.4632C34.2592 21.9994 33.7206 22.3437 33.1262 22.3529C32.5331 22.3566 31.9828 22.0337 31.7096 21.5055L27.4871 13.3487C27.0888 12.579 27.3897 11.633 28.1593 11.2347C28.9289 10.8364 29.875 11.1373 30.2733 11.9062L33.0502 17.2708L35.606 11.9485C35.8634 11.4124 36.402 11.068 36.9963 11.0594C37.5913 11.0539 38.1397 11.3781 38.413 11.9062L41.19 17.2708L43.7463 11.9485C44.1207 11.1673 45.0582 10.8382 45.8388 11.2138C46.6201 11.5888 46.9491 12.5257 46.5741 13.3064L43.0637 20.6152C44.8333 20.1127 46.7004 19.8431 48.6287 19.8431C49.6244 19.8431 50.6036 19.9167 51.5613 20.0551L48.0895 13.3487C47.6918 12.579 47.992 11.633 48.7616 11.2347C49.5312 10.8364 50.4779 11.1373 50.8762 11.9062L53.6526 17.2708L56.2089 11.9485C56.4663 11.4124 57.0043 11.068 57.5993 11.0594C58.1918 11.0539 58.7426 11.3781 59.0159 11.9062L61.7929 17.2708L64.3487 11.9485C64.7237 11.1673 65.6611 10.8382 66.4418 11.2138C67.2224 11.5888 67.5515 12.5257 67.1765 13.3064L63.2592 21.4632C63.0018 21.9994 62.4632 22.3437 61.8689 22.3529H61.845C61.2592 22.3529 60.7218 22.027 60.4522 21.5055L57.6752 16.1415L55.3499 20.9828C60.0417 22.6256 63.9553 25.9369 66.3762 30.2028C66.4203 30.1991 66.4645 30.1961 66.5098 30.1961H74.0392C75.769 30.1961 77.1765 28.7886 77.1765 27.0588V6.35294C77.1765 4.62316 75.769 3.21569 74.0392 3.21569H26.3511C25.4853 3.21569 24.7825 2.51348 24.7825 1.64706C24.7825 0.780636 25.4853 0.0784302 26.3511 0.0784302H74.0392C77.4988 0.0784302 80.3137 2.89338 80.3137 6.35294ZM31.3732 40.2353C31.3732 49.7494 39.114 57.4902 48.6281 57.4902C58.1428 57.4902 65.883 49.7494 65.883 40.2353C65.883 30.7212 58.1422 22.9804 48.6281 22.9804C39.114 22.9804 31.3732 30.7212 31.3732 40.2353Z" fill="black"/>
<path id="Path_4" d="M67.9244 54.2292C67.6327 54.5208 67.4648 54.9252 67.4648 55.3382C67.4648 55.7506 67.6327 56.155 67.9244 56.4473C68.2179 56.739 68.6211 56.9068 69.0335 56.9068C69.4458 56.9068 69.8509 56.739 70.1425 56.4473C70.436 56.155 70.6021 55.7506 70.6021 55.3382C70.6021 54.9252 70.436 54.5208 70.1425 54.2292C69.8509 53.9375 69.4477 53.7696 69.0335 53.7696C68.6211 53.7696 68.2161 53.9375 67.9244 54.2292Z" fill="black"/>
</g>
</svg>
