<svg width="72" height="36" viewBox="0 0 72 36" fill="none" xmlns="http://www.w3.org/2000/svg">
<path fill-rule="evenodd" clip-rule="evenodd" d="M54.3835 29.1925C50.6997 29.1926 47.9123 27.1502 45.671 25.1522C43.2559 22.9991 41.2518 20.8951 40.189 19.737C39.8392 20.1523 38.8537 21.3494 38.0495 22.3264C37.6071 22.8638 37.2196 23.3345 37.0228 23.572C37.6766 24.3295 38.3422 25.0557 39.007 25.7364C39.4146 26.1536 39.4067 26.8221 38.9895 27.2296C38.5722 27.637 37.9037 27.6292 37.4962 27.2121C36.8836 26.585 36.2713 25.9211 35.6678 25.2315C29.3517 32.9189 25.4364 34.1813 24.5636 34.3755C22.6584 35.1509 20.6446 35.5864 18.5768 35.6702C18.5697 35.6707 18.5626 35.6708 18.5555 35.6709H18.5552L17.8638 35.6849L17.8424 35.685C13.0519 35.685 8.55483 33.8126 5.17969 30.4127C1.80483 27.0131 -0.0344026 22.5018 0.000472352 17.7096C0.0352067 12.9551 1.93435 8.48884 5.34788 5.13352C8.76352 1.77638 13.2616 -0.0487892 18.0235 0.000992098C20.242 0.0230702 22.4039 0.447898 24.4491 1.26366C24.546 1.30234 24.6435 1.34059 24.7416 1.37729C25.7143 1.74095 30.6581 3.84568 36.2248 10.7753C42.6958 2.80098 46.7079 1.50652 47.5915 1.30965C49.4968 0.534242 51.5104 0.0987265 53.5785 0.014914C53.5856 0.0144921 53.5928 0.0143515 53.6 0.0142108L54.2914 0.000288973L54.3128 0.000148348C58.5916 0.000148348 62.7296 1.53788 65.9648 4.32999C69.166 7.09271 71.2876 10.9028 71.9392 15.0587C72.0294 15.6348 71.6356 16.1751 71.0594 16.2655C70.4831 16.3554 69.9428 15.9619 69.8526 15.3858C69.2785 11.7235 67.4078 8.36495 64.5849 5.92876C61.7357 3.46979 58.0917 2.11459 54.3231 2.11205L53.6535 2.12555C51.8031 2.20177 50.0026 2.59721 48.3022 3.3009C48.2163 3.33648 48.1617 3.3556 48.072 3.36713C47.8595 3.41593 44.0058 4.40368 37.5085 12.5485C37.5062 12.5514 37.5039 12.5542 37.5016 12.5571C37.4995 12.5596 37.4974 12.5622 37.4953 12.5647C37.4953 12.5647 30.1533 21.3098 27.1093 24.5039C25.0291 26.6868 22.0877 29.1925 17.7724 29.1925C11.514 29.1924 6.42253 24.1007 6.42253 17.8425C6.42253 14.0385 8.3145 10.5058 11.4835 8.39237C11.9689 8.06893 12.6245 8.19999 12.948 8.68515C13.2715 9.17045 13.1405 9.82604 12.6552 10.1496C10.075 11.87 8.53458 14.7457 8.53458 17.8421C8.53458 22.9358 12.6788 27.08 17.7725 27.08C20.514 27.08 22.9221 25.8359 25.5806 23.0463C27.3793 21.159 29.0353 19.3441 30.5821 17.5648C29.6036 16.4925 27.5409 14.3037 25.0791 12.1089C21.6162 9.02194 19.4424 8.60429 17.7729 8.60429H17.769C17.4615 8.60429 17.1514 8.61976 16.8469 8.64999C16.2677 8.70709 15.7493 8.28395 15.6917 7.70359C15.634 7.12323 16.0577 6.60615 16.6381 6.54835C17.0115 6.51123 17.3918 6.49238 17.7684 6.49238H17.7722C21.4559 6.49238 24.2432 8.53468 26.4845 10.5327C28.8998 12.6858 30.9031 14.7891 31.9664 15.9474C32.5083 15.3039 34.8518 12.4418 34.8518 12.4418C29.3974 5.51799 24.5518 3.56077 24.0021 3.35518C23.8898 3.31313 23.7786 3.26954 23.6674 3.22524C21.865 2.50637 19.9594 2.13216 18.0027 2.11262C17.9498 2.1122 17.8964 2.11191 17.8435 2.11191C13.7089 2.11191 9.80302 3.71602 6.82852 6.63962C3.81802 9.59851 2.14318 13.5353 2.11266 17.7247C2.08172 21.9499 3.70341 25.9273 6.67875 28.9245C9.65185 31.9194 13.6125 33.5699 17.8319 33.5727L18.5017 33.5592C20.352 33.4831 22.1526 33.0877 23.853 32.384C23.9388 32.3484 23.9935 32.3294 24.0832 32.3177C24.2984 32.2684 28.2293 31.2597 34.8478 22.8831C35.0986 22.5657 42.0019 14.3753 45.0459 11.1811C47.1262 8.99832 50.0678 6.49266 54.3827 6.49266H54.3828C60.6412 6.49266 65.7327 11.5841 65.7327 17.8425C65.7327 24.0986 60.6432 29.1901 54.3872 29.1925H54.3835ZM54.3828 8.60471C51.6413 8.60457 49.2333 9.84854 46.5748 12.6383C44.7763 14.5253 43.1198 16.3404 41.5732 18.1193C42.5512 19.1914 44.614 21.3806 47.0762 23.5758C50.5391 26.6629 52.7132 27.0806 54.3827 27.0806H54.3863C59.4782 27.0786 63.6208 22.9345 63.6208 17.8426C63.6208 12.7488 59.4765 8.60471 54.3828 8.60471Z" fill="black"/>
</svg>
