<svg width="72" height="36" viewBox="0 0 72 36" fill="none" xmlns="http://www.w3.org/2000/svg">
<path d="M71.0868 19.1053C70.5087 19.0263 69.9766 19.431 69.8977 20.0088C69.3881 23.741 67.5411 27.1742 64.6968 29.6758C61.827 32.1999 58.1393 33.59 54.3128 33.59C52.2308 33.59 50.2087 33.19 48.3023 32.4011C48.2707 32.3881 48.2341 32.3753 48.2012 32.3653C48.1789 32.3585 45.9293 31.6558 42.5798 28.9969C42.1229 28.6342 41.4587 28.7107 41.096 29.1675C40.7335 29.6244 40.8098 30.2885 41.2666 30.6512C44.7029 33.3788 47.1172 34.2346 47.5381 34.3706C49.6889 35.254 51.9679 35.702 54.3128 35.702C58.6529 35.702 62.8361 34.1251 66.0917 31.2618C69.3172 28.425 71.412 24.5301 71.9903 20.2947C72.0691 19.7166 71.6647 19.1842 71.0868 19.1053Z" fill="black"/>
<path fill-rule="evenodd" clip-rule="evenodd" d="M54.3835 29.2093C50.6997 29.2095 47.9123 27.167 45.671 25.169C43.2559 23.0159 41.2518 20.9119 40.189 19.7539C39.8392 20.1692 38.8537 21.3663 38.0495 22.3433C37.6071 22.8806 37.2196 23.3514 37.0228 23.5888C37.6766 24.3464 38.3422 25.0726 39.007 25.7532C39.4146 26.1704 39.4067 26.839 38.9895 27.2465C38.5722 27.6539 37.9037 27.646 37.4962 27.2289C36.8836 26.6019 36.2713 25.938 35.6678 25.2484C29.3517 32.9358 25.4364 34.1982 24.5636 34.3924C22.6584 35.1678 20.6446 35.6033 18.5768 35.6871C18.5697 35.6875 18.5626 35.6876 18.5555 35.6878H18.5552L17.8638 35.7017L17.8424 35.7019C13.0519 35.7019 8.55483 33.8294 5.17969 30.4295C1.80483 27.0299 -0.0344026 22.5187 0.000472352 17.7265C0.0352067 12.9719 1.93435 8.50568 5.34788 5.15037C8.76352 1.79323 13.2616 -0.0319435 18.0235 0.0178378C20.242 0.0399159 22.4039 0.464744 24.4491 1.28051C24.546 1.31918 24.6435 1.35743 24.7416 1.39413C25.7143 1.75779 30.6581 3.86253 36.2248 10.7921C42.6958 2.81782 46.7079 1.52337 47.5915 1.32649C49.4968 0.551088 51.5104 0.115572 53.5785 0.0317597C53.5856 0.0313378 53.5928 0.0311972 53.6 0.0310566L54.2914 0.0171347L54.3128 0.0169941C58.5916 0.0169941 62.7296 1.55473 65.9648 4.34684C69.166 7.10956 71.2876 10.9197 71.9392 15.0755C72.0294 15.6517 71.6356 16.192 71.0594 16.2824C70.4831 16.3722 69.9428 15.9788 69.8526 15.4026C69.2785 11.7403 67.4078 8.38179 64.5849 5.9456C61.7357 3.48663 58.0917 2.13143 54.3231 2.1289L53.6535 2.1424C51.8031 2.21862 50.0026 2.61406 48.3022 3.31774C48.2163 3.35332 48.1617 3.37245 48.072 3.38398C47.8595 3.43278 44.0058 4.42053 37.5085 12.5654C37.5062 12.5682 37.5039 12.5711 37.5016 12.5739C37.4995 12.5765 37.4974 12.579 37.4953 12.5816C37.4953 12.5816 30.1533 21.3266 27.1093 24.5208C25.0291 26.7037 22.0877 29.2093 17.7724 29.2093C11.514 29.2092 6.42253 24.1176 6.42253 17.8594C6.42253 14.0553 8.3145 10.5227 11.4835 8.40921C11.9689 8.08578 12.6245 8.21684 12.948 8.70199C13.2715 9.18729 13.1405 9.84289 12.6552 10.1665C10.075 11.8869 8.53458 14.7625 8.53458 17.8589C8.53458 22.9527 12.6788 27.0969 17.7725 27.0969C20.514 27.0969 22.9221 25.8528 25.5806 23.0632C27.3793 21.1759 29.0353 19.3609 30.5821 17.5816C29.6036 16.5094 27.5409 14.3205 25.0791 12.1258C21.6162 9.03879 19.4424 8.62113 17.7729 8.62113H17.769C17.4615 8.62113 17.1514 8.6366 16.8469 8.66684C16.2677 8.72393 15.7493 8.30079 15.6917 7.72043C15.634 7.14007 16.0577 6.62299 16.6381 6.5652C17.0115 6.52807 17.3918 6.50923 17.7684 6.50923H17.7722C21.4559 6.50923 24.2432 8.55153 26.4845 10.5495C28.8998 12.7026 30.9031 14.806 31.9664 15.9643C32.5083 15.3208 34.8518 12.4587 34.8518 12.4587C29.3974 5.53484 24.5518 3.57762 24.0021 3.37203C23.8898 3.32998 23.7786 3.28638 23.6674 3.24209C21.865 2.52321 19.9594 2.14901 18.0027 2.12946C17.9498 2.12904 17.8964 2.12876 17.8435 2.12876C13.7089 2.12876 9.80302 3.73287 6.82852 6.65646C3.81802 9.61535 2.14318 13.5522 2.11266 17.7415C2.08172 21.9667 3.70341 25.9442 6.67875 28.9413C9.65185 31.9362 13.6125 33.5867 17.8319 33.5895L18.5017 33.576C20.352 33.5 22.1526 33.1045 23.853 32.4008C23.9388 32.3652 23.9935 32.3463 24.0832 32.3346C24.2984 32.2852 28.2293 31.2765 34.8478 22.8999C35.0986 22.5825 42.0019 14.3921 45.0459 11.1979C47.1262 9.01517 50.0678 6.50951 54.3827 6.50951H54.3828C60.6412 6.50951 65.7327 11.601 65.7327 17.8594C65.7327 24.1155 60.6432 29.2069 54.3872 29.2093H54.3835ZM54.3828 8.62156C51.6413 8.62142 49.2333 9.86538 46.5748 12.6551C44.7763 14.5422 43.1198 16.3572 41.5732 18.1361C42.5512 19.2082 44.614 21.3975 47.0762 23.5926C50.5391 26.6798 52.7132 27.0974 54.3827 27.0974H54.3863C59.4782 27.0955 63.6208 22.9514 63.6208 17.8595C63.6208 12.7656 59.4765 8.62156 54.3828 8.62156Z" fill="black"/>
</svg>
