<svg width="72" height="72" viewBox="0 0 72 72" fill="none" xmlns="http://www.w3.org/2000/svg">
<g id="001-drag">
<path id="Path" d="M64.5 27H49.5C48.672 27 48 27.672 48 28.5C48 29.328 48.672 30.0001 49.5 30.0001H64.5C66.9811 30.0001 69 32.019 69 34.5001V64.5C69 66.9811 66.9811 69 64.5 69H34.5C32.0189 69 30 66.9811 30 64.5V52.5001C30 51.6721 29.3279 51 28.4999 51C27.6719 51 27 51.672 27 52.5V64.4999C27 68.634 30.366 72 34.5 72H64.4999C68.634 72 72 68.634 72 64.5V34.5C72 30.366 68.634 27 64.5 27Z" fill="black"/>
<path id="Path_2" d="M22.5001 42.0001H21C20.172 42.0001 19.5 42.6721 19.5 43.5001C19.5 44.3281 20.172 45 21 45H22.5001C23.3281 45 24.0001 44.328 24.0001 43.5C24.0001 42.672 23.3281 42.0001 22.5001 42.0001Z" fill="black"/>
<g id="Group">
<path id="Path_3" d="M8.82296 0H7.49996C6.78305 0 6.07501 0.101953 5.39396 0.299953C4.59901 0.533953 4.14296 1.368 4.37401 2.16295C4.56596 2.817 5.16601 3.24 5.81401 3.24C5.95505 3.24 6.09596 3.222 6.23701 3.17995C6.64496 3.06 7.06796 2.99995 7.49996 2.99995H8.82296C9.65391 2.99995 10.323 2.32791 10.323 1.49991C10.323 0.671906 9.65096 0 8.82296 0Z" fill="black"/>
<path id="Path_4" d="M2.99995 36.171V33.138C2.99995 32.31 2.32791 31.6379 1.49991 31.6379C0.671906 31.6379 0 32.31 0 33.138V36.171C0 36.999 0.672047 37.671 1.50005 37.671C2.32805 37.671 2.99995 36.999 2.99995 36.171Z" fill="black"/>
<path id="Path_5" d="M1.50005 28.572C2.32805 28.572 3.00009 27.9 3.00009 27.072V24.039C3.00009 23.211 2.32805 22.5389 1.50005 22.5389C0.672047 22.5389 0 23.211 0 24.039V27.072C0 27.9 0.672047 28.572 1.50005 28.572Z" fill="black"/>
<path id="Path_6" d="M1.50005 10.377C2.32805 10.377 3.00009 9.70496 3.00009 8.87696V7.49996C3.00009 7.08301 3.05705 6.67196 3.16814 6.27596C3.39314 5.47791 2.93119 4.64991 2.13314 4.42491C1.34114 4.18796 0.507094 4.65891 0.282094 5.45991C0.0960469 6.12296 0 6.81005 0 7.49996V8.87696C0 9.70496 0.672047 10.377 1.50005 10.377Z" fill="black"/>
<path id="Path_7" d="M1.50005 19.476C2.32805 19.476 3.00009 18.804 3.00009 17.976V14.943C3.00009 14.115 2.32805 13.4429 1.50005 13.4429C0.672047 13.4429 0 14.115 0 14.943V17.976C0 18.804 0.672047 19.476 1.50005 19.476Z" fill="black"/>
<path id="Path_8" d="M6.26982 41.829C5.54377 41.622 4.87187 41.229 4.33187 40.6921C3.74687 40.1071 2.79582 40.1131 2.21082 40.6981C1.62582 41.2861 1.62877 42.2371 2.21687 42.8192C3.11687 43.7162 4.23582 44.3701 5.45082 44.7152C5.58877 44.7542 5.72687 44.7722 5.86187 44.7722C6.51282 44.7722 7.11582 44.3431 7.30187 43.6832C7.52982 42.885 7.06773 42.054 6.26982 41.829Z" fill="black"/>
<path id="Path_9" d="M43.2571 7.30799C43.3951 7.30799 43.5361 7.28999 43.6772 7.24499C44.4721 7.01099 44.9311 6.18003 44.6971 5.38494C44.3432 4.17289 43.6772 3.05999 42.7741 2.16589C42.1861 1.58385 41.2351 1.58694 40.653 2.17785C40.071 2.7658 40.077 3.71685 40.665 4.29889C41.205 4.83889 41.607 5.50489 41.817 6.22785C42.0092 6.88203 42.6062 7.30799 43.2571 7.30799Z" fill="black"/>
<path id="Path_10" d="M36.117 0H33.084C32.256 0 31.584 0.672047 31.584 1.50005C31.584 2.32805 32.256 3.00009 33.084 3.00009H36.117C36.945 3.00009 37.6171 2.32805 37.6171 1.50005C37.6171 0.672047 36.945 0 36.117 0Z" fill="black"/>
<path id="Path_11" d="M14.9369 42.0001H11.9039C11.0759 42.0001 10.4038 42.6721 10.4038 43.5001C10.4038 44.3281 11.0759 45 11.9039 45H14.9369C15.7649 45 16.4369 44.328 16.4369 43.5C16.4369 42.672 15.7649 42.0001 14.9369 42.0001Z" fill="black"/>
<path id="Path_12" d="M43.5 10.35C42.672 10.35 42 11.022 42 11.85V14.883C42 15.711 42.672 16.3831 43.5 16.3831C44.328 16.3831 45.0001 15.711 45.0001 14.883V11.85C45.0001 11.0189 44.328 10.35 43.5 10.35Z" fill="black"/>
<path id="Path_13" d="M27.0208 0H23.9878C23.1569 0 22.4878 0.672047 22.4878 1.50005C22.4878 2.32805 23.1598 3.00009 23.9878 3.00009H27.0179C27.8488 3.00009 28.5209 2.32805 28.5209 1.50005C28.5209 0.672047 27.8488 0 27.0208 0Z" fill="black"/>
<path id="Path_14" d="M17.9217 0H14.8887C14.0607 0 13.3887 0.672047 13.3887 1.50005C13.3887 2.32805 14.0607 3.00009 14.8887 3.00009H17.9217C18.7497 3.00009 19.4218 2.32805 19.4218 1.50005C19.4218 0.672047 18.7497 0 17.9217 0Z" fill="black"/>
</g>
<path id="Path_15" d="M43.5 19.5001C42.672 19.5001 42 20.1721 42 21.0001V22.5C42 23.328 42.672 24.0001 43.5 24.0001C44.328 24.0001 45.0001 23.328 45.0001 22.5V21C45.0001 20.172 44.328 19.5001 43.5 19.5001Z" fill="black"/>
<path id="Shape" fill-rule="evenodd" clip-rule="evenodd" d="M44.5618 21.438L49.2118 26.088C52.2988 29.178 53.9998 33.2849 53.9998 37.6499C53.9998 46.665 46.6648 54 37.6498 54H31.4998C27.3659 54 23.9999 50.634 23.9996 46.5V41.121L22.6556 39.777C21.7707 38.895 21.2847 37.716 21.2847 36.465C21.2847 35.214 21.7707 34.038 22.6556 33.153C23.3876 32.4209 24.3206 31.9619 25.3316 31.824C25.2416 30.519 25.6945 29.184 26.6906 28.188C27.7316 27.1471 29.2256 26.6611 30.6566 26.862C30.8276 25.9741 31.2537 25.125 31.9407 24.4381C33.2007 23.1781 35.1566 22.7551 36.7917 23.325C37.0108 22.635 37.3947 21.984 37.9407 21.438C39.7648 19.6139 42.7377 19.6139 44.5618 21.438ZM31.4998 51H37.6498C45.0118 51 50.9999 45.0119 50.9997 37.6501C50.9997 34.0861 49.6108 30.732 47.0908 28.212L42.4407 23.562C41.7837 22.905 40.7188 22.905 40.0618 23.562C39.7438 23.877 39.5668 24.3 39.5668 24.75C39.5668 25.2 39.7409 25.623 40.0588 25.938C40.3529 26.232 40.4998 26.6159 40.4998 27C40.4998 27.384 40.3527 27.7679 40.0618 28.062C39.4768 28.647 38.5257 28.647 37.9407 28.062L36.4407 26.5619C35.8048 25.9259 34.6978 25.9259 34.0617 26.5619C33.4047 27.2189 33.4047 28.2839 34.0617 28.9409L35.5618 30.4409C35.8529 30.732 35.9998 31.1159 35.9998 31.5C35.9998 31.884 35.8527 32.2679 35.5618 32.562C34.9768 33.147 34.0257 33.147 33.4407 32.562L31.1907 30.312C30.5548 29.6759 29.4478 29.6759 28.8118 30.312C28.1548 30.969 28.1548 32.0339 28.8118 32.6909L32.5618 36.441C32.8529 36.7321 32.9999 37.116 32.9999 37.5C32.9999 37.8841 32.8528 38.268 32.5618 38.562C31.9768 39.147 31.0258 39.147 30.4408 38.562L27.1558 35.277C26.5199 34.641 25.4129 34.641 24.7768 35.277C24.4587 35.595 24.2848 36.018 24.2848 36.465C24.2848 36.9121 24.4589 37.338 24.7768 37.653L32.5618 45.438C32.8529 45.7321 32.9999 46.116 32.9999 46.5C32.9999 46.8841 32.8528 47.268 32.5618 47.562C31.9768 48.147 31.0258 48.147 30.4408 47.562L26.9998 44.1211V46.5C26.9998 48.9811 29.0188 51 31.4998 51Z" fill="black"/>
</g>
</svg>
